<svg xmlns="http://www.w3.org/2000/svg" viewBox="0 0 141 129" width="141" height="129" aria-hidden="true">
  <g transform="translate(0,129) scale(0.1,-0.1)" fill="#2E7D32">
    <path d="M645 973 c-58 -14 -110 -53 -70 -53 11 0 15 -11 15 -42 l0 -43 -69 -17 c-86 -20 -164 -54 -156 -67 3 -6 12 -8 20 -4 13 4 15 -18 15 -151 l0 -156 -50 0 -50 0 0 -35 0 -35 50 0 50 0 0 -95 0 -95 300 0 300 0 0 95 0 95 50 0 50 0 0 35 0 35 -50 0 -50 0 0 156 c0 133 2 155 15 151 8 -4 17 -2 20 4 8 11 -79 51 -150 68 -27 7 -53 18 -57 24 -14 21 -8 66 8 75 53 30 -106 75 -191 55z m133 -29 c49 -14 17 -24 -73 -24 -52 0 -95 4 -95 9 0 5 8 12 18 14 26 7 124 7 150 1z m22 -79 c0 -25 0 -25 -95 -25 -95 0 -95 0 -95 25 0 25 0 25 95 25 95 0 95 0 95 -25z m70 -69 c52 -13 42 -14 -169 -15 -123 -1 -222 1 -220 4 3 2 41 11 85 20 89 16 217 13 304 -9z m-420 -46 c0 -19 -11 -26 -23 -14 -8 8 3 34 14 34 5 0 9 -9 9 -20z m523 6 c6 -15 -1 -26 -15 -26 -4 0 -8 9 -8 20 0 23 15 27 23 6z m-45 -28 l-3 -23 -225 0 -225 0 -3 23 -3 22 231 0 231 0 -3 -22z m-478 -38 c0 -5 -4 -10 -9 -10 -6 0 -13 5 -16 10 -3 6 1 10 9 10 9 0 16 -4 16 -10z m525 0 c-3 -5 -10 -10 -16 -10 -5 0 -9 5 -9 10 0 6 7 10 16 10 8 0 12 -4 9 -10z m-47 -79 c2 -36 -2 -69 -7 -74 -8 -8 -11 -2 -11 20 0 17 -9 41 -19 54 l-20 24 -8 -24 -9 -23 -17 26 c-21 31 -34 33 -39 6 -5 -33 -22 -28 -42 13 -17 35 -20 37 -34 24 -13 -14 -17 -14 -38 0 -22 14 -24 13 -38 -22 -18 -41 -36 -38 -36 6 0 39 -16 37 -42 -7 -18 -31 -23 -33 -30 -19 -9 15 -11 15 -29 -1 -12 -10 -19 -30 -19 -51 0 -20 -4 -32 -10 -28 -11 7 -14 128 -3 139 4 3 106 5 227 4 l221 -3 3 -64z m-478 29 c0 -5 -4 -10 -9 -10 -6 0 -13 5 -16 10 -3 6 1 10 9 10 9 0 16 -4 16 -10z m525 0 c-3 -5 -10 -10 -16 -10 -5 0 -9 5 -9 10 0 6 7 10 16 10 8 0 12 -4 9 -10z m-279 -27 c7 -10 14 -33 14 -50 l0 -33 -94 0 c-87 0 -95 2 -101 21 -10 31 2 35 30 9 l25 -23 0 24 c0 13 4 30 9 38 7 11 11 9 20 -8 16 -30 39 -26 59 9 20 35 21 35 38 13z m84 -43 c10 0 22 5 25 10 11 17 23 11 29 -15 7 -28 21 -33 30 -10 8 22 26 18 26 -5 0 -18 -7 -20 -77 -20 l-78 0 0 39 c-1 36 0 38 13 20 7 -10 22 -19 32 -19z m-330 20 c0 -5 -4 -10 -9 -10 -6 0 -13 5 -16 10 -3 6 1 10 9 10 9 0 16 -4 16 -10z m525 0 c-3 -5 -10 -10 -16 -10 -5 0 -9 5 -9 10 0 6 7 10 16 10 8 0 12 -4 9 -10z m-528 -56 c-9 -9 -28 6 -21 18 4 6 10 6 17 -1 6 -6 8 -13 4 -17z m524 3 c-13 -13 -26 -3 -16 12 3 6 11 8 17 5 6 -4 6 -10 -1 -17z m-524 -53 c-9 -9 -28 6 -21 18 4 6 10 6 17 -1 6 -6 8 -13 4 -17z m478 -9 l0 -30 -225 0 c-209 0 -225 1 -228 18 -9 47 -6 48 230 45 l223 -3 0 -30z m46 12 c-13 -13 -26 -3 -16 12 3 6 11 8 17 5 6 -4 6 -10 -1 -17z m-526 -37 c3 -5 1 -10 -4 -10 -6 0 -11 5 -11 10 0 6 2 10 4 10 3 0 8 -4 11 -10z m525 0 c0 -5 -5 -10 -11 -10 -5 0 -7 5 -4 10 3 6 8 10 11 10 2 0 4 -4 4 -10z m105 -45 c0 -10 -717 -20 -743 -10 -7 3 -10 9 -7 15 9 14 750 9 750 -5z m-625 -39 c0 -3 -4 -8 -10 -11 -5 -3 -10 -1 -10 4 0 6 5 11 10 11 6 0 10 -2 10 -4z m475 -36 l0 -35 -225 0 -225 0 -3 23 c-8 53 -10 53 230 50 l223 -3 0 -35z m45 30 c0 -5 -2 -10 -4 -10 -3 0 -8 5 -11 10 -3 6 -1 10 4 10 6 0 11 -4 11 -10z m-520 -38 c0 -13 -12 -22 -22 -16 -10 6 -1 24 13 24 5 0 9 -4 9 -8z m521 -5 c-1 -12 -15 -9 -19 4 -3 6 1 10 8 8 6 -3 11 -8 11 -12z m-521 -45 c0 -13 -12 -22 -22 -16 -10 6 -1 24 13 24 5 0 9 -4 9 -8z m521 -5 c-1 -12 -15 -9 -19 4 -3 6 1 10 8 8 6 -3 11 -8 11 -12z m-46 -32 l0 -30 -225 0 c-209 0 -225 1 -228 18 -9 47 -6 48 230 45 l223 -3 0 -30z m-475 -13 c0 -13 -12 -22 -22 -16 -10 6 -1 24 13 24 5 0 9 -4 9 -8z m521 -5 c-1 -12 -15 -9 -19 4 -3 6 1 10 8 8 6 -3 11 -8 11 -12z"/>
    <path d="M500 470 c0 -5 5 -10 10 -10 6 0 10 5 10 10 0 6 -4 10 -10 10 -5 0 -10 -4 -10 -10z"/>
    <path d="M580 470 c0 -5 5 -10 10 -10 6 0 10 5 10 10 0 6 -4 10 -10 10 -5 0 -10 -4 -10 -10z"/>
    <path d="M650 470 c0 -5 5 -10 10 -10 6 0 10 5 10 10 0 6 -4 10 -10 10 -5 0 -10 -4 -10 -10z"/>
    <path d="M730 470 c0 -5 5 -10 10 -10 6 0 10 5 10 10 0 6 -4 10 -10 10 -5 0 -10 -4 -10 -10z"/>
    <path d="M800 470 c0 -5 5 -10 10 -10 6 0 10 5 10 10 0 6 -4 10 -10 10 -5 0 -10 -4 -10 -10z"/>
    <path d="M880 470 c0 -5 5 -10 10 -10 6 0 10 5 10 10 0 6 -4 10 -10 10 -5 0 -10 -4 -10 -10z"/>
  </g>
</svg>
