<svg xmlns="http://www.w3.org/2000/svg" viewBox="0 0 117 106" width="117" height="106" aria-hidden="true">
  <g transform="translate(0,106) scale(0.1,-0.1)" fill="#2E7D32">
    <path d="M281 848 c-51 -34 -73 -71 -78 -125 -6 -72 1 -76 82 -53 38 11 70 19 71 17 6 -6 33 -111 30 -114 -2 -3 -14 9 -27 26 -16 22 -31 31 -50 31 -45 0 -44 -19 2 -66 43 -44 43 -45 27 -72 -11 -18 -27 -28 -47 -30 -17 -2 -31 -7 -31 -13 0 -5 109 -9 270 -9 l270 0 0 -35 c0 -19 5 -35 10 -35 6 0 10 7 10 15 0 11 12 15 45 15 33 0 45 -4 45 -15 0 -8 5 -15 10 -15 6 0 10 16 10 35 0 31 3 35 25 35 14 0 25 5 25 10 0 6 -11 10 -25 10 -24 0 -25 2 -25 65 0 52 4 67 16 72 10 4 22 -1 30 -12 17 -23 33 -11 18 13 -7 10 -24 17 -40 17 -24 0 -31 -6 -39 -32 -8 -31 -12 -33 -52 -33 -37 0 -43 3 -43 20 0 28 30 38 46 15 18 -24 29 -13 14 14 -12 23 -49 28 -68 9 -7 -7 -12 -40 -12 -80 l0 -68 -34 0 c-30 0 -39 7 -71 50 l-37 50 -123 0 -122 0 -17 58 c-9 32 -16 63 -16 69 0 6 32 19 70 28 39 9 70 22 70 27 0 24 -33 77 -63 98 -47 36 -131 39 -176 8z m156 -18 c18 -10 39 -33 48 -50 15 -30 15 -30 -10 -40 -34 -13 -32 -14 -39 15 -3 13 -22 40 -41 60 -34 33 -34 35 -13 35 13 0 37 -9 55 -20z m-153 -37 c-8 -27 -13 -61 -12 -78 3 -26 -1 -30 -24 -33 -25 -3 -28 0 -28 27 0 42 16 78 46 106 15 14 28 25 29 25 2 0 -3 -21 -11 -47z m97 8 c56 -55 52 -75 -16 -90 -62 -14 -75 -10 -75 24 0 32 29 105 42 105 6 0 28 -17 49 -39z m-27 -226 l27 -35 134 0 c78 0 136 -4 140 -10 4 -6 -44 -10 -138 -10 l-145 0 -36 45 c-24 29 -32 45 -23 45 8 0 27 -16 41 -35z m556 -60 c0 -11 -12 -15 -45 -15 -33 0 -45 4 -45 15 0 11 12 15 45 15 33 0 45 -4 45 -15z m-215 -35 c18 -20 17 -20 -170 -20 -187 0 -188 0 -170 20 17 18 31 20 170 20 139 0 153 -2 170 -20z m215 -10 c0 -5 -20 -10 -45 -10 -25 0 -45 5 -45 10 0 6 20 10 45 10 25 0 45 -4 45 -10z m0 -40 c0 -5 -20 -10 -45 -10 -25 0 -45 5 -45 10 0 6 20 10 45 10 25 0 45 -4 45 -10z"/>
    <path d="M670 831 c0 -10 -6 -24 -14 -30 -11 -9 -15 -7 -19 9 -3 11 -10 20 -16 20 -16 0 -14 -15 4 -30 22 -18 18 -30 -10 -30 -14 0 -25 -5 -25 -11 0 -6 9 -9 20 -6 28 7 35 -10 14 -34 -10 -11 -12 -19 -5 -19 6 0 14 6 17 13 3 8 16 12 34 9 20 -3 32 1 41 15 8 13 19 18 35 15 14 -2 24 0 24 7 0 6 -11 11 -24 11 -27 0 -42 25 -20 34 8 3 14 11 14 17 0 7 -8 5 -19 -5 -24 -21 -41 -14 -34 14 3 11 0 20 -6 20 -6 0 -11 -8 -11 -19z m28 -69 c3 -16 -2 -22 -17 -22 -26 0 -36 17 -20 36 16 19 33 13 37 -14z"/>
    <path d="M710 722 c0 -5 7 -16 16 -23 14 -12 16 -11 13 5 -4 20 -29 35 -29 18z"/>
    <path d="M670 690 c0 -11 5 -20 10 -20 6 0 10 9 10 20 0 11 -4 20 -10 20 -5 0 -10 -9 -10 -20z"/>
    <path d="M326 355 c-22 -12 -32 -12 -43 -4 -15 13 -28 6 -18 -10 8 -15 58 -14 73 1 9 9 21 9 51 0 26 -8 47 -9 64 -3 16 6 38 6 62 0 25 -7 46 -7 69 1 20 6 43 7 57 2 28 -10 190 -9 207 2 6 4 21 2 32 -4 28 -15 78 -16 92 -2 17 17 1 27 -17 12 -11 -9 -22 -10 -42 -2 -17 7 -122 10 -268 10 -132 0 -251 2 -265 6 -15 4 -36 0 -54 -9z"/>
    <path d="M327 279 c-10 -6 -30 -8 -44 -4 -18 4 -24 2 -21 -7 6 -18 47 -22 75 -7 19 10 31 10 58 0 26 -9 39 -9 56 0 17 9 31 8 61 0 30 -9 48 -9 74 -1 27 9 42 9 64 0 22 -9 37 -9 64 0 27 8 40 8 57 -1 17 -8 31 -9 60 0 27 8 45 9 58 1 24 -12 61 -13 81 0 21 13 6 24 -17 12 -13 -7 -28 -6 -52 4 -26 11 -42 12 -65 4 -20 -6 -43 -7 -63 -1 -20 6 -46 6 -67 0 -22 -6 -43 -6 -61 1 -20 8 -38 7 -61 0 -25 -9 -43 -9 -69 0 -26 9 -44 9 -66 1 -21 -7 -37 -7 -49 -1 -24 13 -50 12 -73 -1z"/>
    <path d="M325 200 c-4 -7 -19 -10 -36 -6 -16 3 -29 1 -29 -4 0 -16 41 -22 72 -9 24 10 37 10 63 0 27 -9 38 -9 54 1 16 9 30 10 62 1 30 -8 51 -8 72 -1 21 8 39 8 62 -1 23 -8 40 -8 63 0 23 8 41 8 66 -1 26 -8 40 -8 56 0 16 9 34 8 71 -1 42 -11 52 -11 64 2 12 12 9 14 -30 17 -45 2 -78 3 -135 3 -16 0 -43 0 -60 0 -16 0 -43 0 -60 0 -16 0 -46 0 -65 0 -19 0 -48 0 -65 0 -83 1 -111 0 -122 -1 -7 0 -32 2 -54 6 -28 4 -44 2 -49 -6z"/>
  </g>
</svg>
