<?xml version="1.0" standalone="no"?>
<!DOCTYPE svg PUBLIC "-//W3C//DTD SVG 20010904//EN"
 "http://www.w3.org/TR/2001/REC-SVG-20010904/DTD/svg10.dtd">
<svg version="1.0" xmlns="http://www.w3.org/2000/svg"
width="90.000000pt" height="90.000000pt" viewBox="0 0 90.000000 90.000000"
preserveAspectRatio="xMidYMid meet">

<g transform="translate(0.000000,90.000000) scale(0.100000,-0.100000)"
fill="#000000" stroke="none">
<path d="M385 818 c-3 -7 -6 -85 -7 -173 l-3 -160 -60 -5 c-42 -4 -61 -9 -63
-20 -2 -16 182 -230 198 -230 16 0 200 214 198 230 -2 11 -21 16 -63 20 l-60
5 -5 170 -5 170 -63 3 c-44 2 -64 -1 -67 -10z"/>
<path d="M80 165 c0 -103 2 -115 19 -125 27 -14 675 -14 702 0 17 10 19 22 19
125 l0 115 -45 0 -44 0 -3 -72 -3 -73 -275 0 -275 0 -3 73 -3 72 -44 0 -45 0
0 -115z"/>
</g>
</svg>
