<svg xmlns="http://www.w3.org/2000/svg" viewBox="0 0 122 107" width="122" height="107" aria-hidden="true">
  <g transform="translate(0,107) scale(0.1,-0.1)" fill="#2E7D32">
    <path d="M435 861 l-190 -66 -3 -333 -2 -332 45 0 45 0 2 213 3 212 305 0 305 0 3 -213 2 -212 45 0 45 0 -2 332 -3 332 -195 68 c-107 37 -199 67 -205 67 -5 -1 -95 -31 -200 -68z m392 -23 l183 -63 0 -42 0 -43 -370 0 -370 0 0 43 0 42 178 62 c97 34 182 62 187 63 6 0 92 -28 192 -62z m-517 -428 c0 -243 -1 -250 -20 -250 -19 0 -20 7 -20 250 0 243 1 250 20 250 19 0 20 -7 20 -250z m640 240 c0 -6 -110 -10 -310 -10 -200 0 -310 4 -310 10 0 6 110 10 310 10 200 0 310 -4 310 -10z m60 -240 c0 -243 -1 -250 -20 -250 -19 0 -20 7 -20 250 0 243 1 250 20 250 19 0 20 -7 20 -250z m-62 188 c-7 -19 -609 -19 -615 0 -4 9 62 12 307 12 245 0 311 -3 308 -12z"/>
    <path d="M483 478 c-6 -7 -20 -32 -32 -55 -12 -24 -34 -49 -51 -58 l-30 -16 0 -98 c0 -112 7 -124 67 -119 35 3 38 6 41 36 l3 32 159 0 159 0 3 -32 c3 -30 6 -33 41 -36 60 -5 67 7 67 119 l0 98 -29 16 c-17 8 -41 37 -58 67 l-28 53 -151 3 c-113 2 -154 -1 -161 -10z m312 -48 c8 -16 15 -34 15 -40 0 -6 -58 -10 -170 -10 -112 0 -170 4 -170 10 0 6 7 24 15 40 l16 30 139 0 139 0 16 -30z m60 -82 c23 -10 25 -17 25 -70 l0 -58 -240 0 -240 0 0 58 c0 51 3 60 23 70 31 15 398 16 432 0z m-405 -168 c0 -15 -7 -20 -25 -20 -18 0 -25 5 -25 20 0 15 7 20 25 20 18 0 25 -5 25 -20z m430 0 c0 -15 -7 -20 -25 -20 -18 0 -25 5 -25 20 0 15 7 20 25 20 18 0 25 -5 25 -20z"/>
    <path d="M434 316 c-3 -8 -4 -25 -2 -38 3 -20 9 -23 43 -23 39 0 40 1 40 35 0 33 -2 35 -38 38 -26 2 -39 -1 -43 -12z m56 -26 c0 -5 -9 -10 -20 -10 -11 0 -20 5 -20 10 0 6 9 10 20 10 11 0 20 -4 20 -10z"/>
    <path d="M554 316 c-3 -8 -4 -25 -2 -38 3 -22 7 -23 88 -23 l85 0 0 35 0 35 -83 3 c-65 2 -83 0 -88 -12z m156 -26 c0 -6 -30 -10 -70 -10 -40 0 -70 4 -70 10 0 6 30 10 70 10 40 0 70 -4 70 -10z"/>
    <path d="M764 316 c-3 -8 -4 -25 -2 -38 3 -20 9 -23 43 -23 39 0 40 1 40 35 0 33 -2 35 -38 38 -26 2 -39 -1 -43 -12z m66 -26 c0 -5 -9 -10 -20 -10 -11 0 -20 5 -20 10 0 6 9 10 20 10 11 0 20 -4 20 -10z"/>
  </g>
</svg>
