<svg xmlns="http://www.w3.org/2000/svg" viewBox="0 0 127 111" width="127" height="111" aria-hidden="true">
  <g transform="translate(0,111) scale(0.1,-0.1)" fill="#2E7D32">
    <path d="M841 823 c-17 -21 -31 -43 -31 -50 0 -9 -7 -10 -26 -3 -55 21 -162 30 -241 20 -86 -11 -196 -57 -213 -91 -6 -10 -17 -19 -24 -19 -18 0 -53 -40 -71 -82 -23 -56 -19 -93 14 -131 17 -19 31 -47 33 -66 6 -69 70 -67 76 3 3 39 12 45 32 21 9 -11 7 -25 -14 -69 -14 -30 -26 -61 -26 -68 0 -31 43 -80 88 -101 42 -20 64 -22 197 -22 164 1 237 15 308 61 71 46 97 154 50 206 -9 10 -48 35 -86 55 -78 41 -103 75 -87 118 15 38 34 26 40 -26 5 -41 7 -44 35 -44 27 0 30 3 33 37 2 26 13 47 33 67 46 47 38 134 -19 194 -36 37 -64 35 -101 -10z m93 -13 c49 -59 47 -139 -6 -166 -29 -15 -34 -15 -64 0 -38 17 -50 48 -40 101 7 38 50 95 71 95 7 0 25 -14 39 -30z m-179 -54 c38 -11 40 -14 47 -61 4 -30 3 -65 -4 -87 -16 -55 10 -91 102 -142 91 -50 109 -78 90 -139 -24 -80 -91 -117 -249 -138 -139 -19 -280 -1 -335 42 -32 25 -35 73 -6 126 24 45 25 61 5 83 -13 15 -13 20 2 50 14 29 14 40 4 78 -13 49 -46 102 -63 102 -19 0 25 41 64 61 21 11 55 23 75 28 55 13 222 11 268 -3z m-401 -121 c29 -32 48 -99 36 -131 -19 -50 -96 -61 -129 -18 -12 15 -21 35 -21 46 0 25 27 88 47 110 22 25 40 23 67 -7z m556 -55 c0 -20 -5 -30 -15 -30 -10 0 -15 10 -15 30 0 20 5 30 15 30 10 0 15 -10 15 -30z m-580 -181 c0 -38 -24 -35 -28 4 -2 19 1 27 12 27 11 0 16 -10 16 -31z"/>
    <path d="M478 703 c-34 -9 -18 -23 25 -23 39 1 41 2 23 15 -11 8 -22 14 -25 14 -3 -1 -14 -3 -23 -6z"/>
    <path d="M513 603 c-34 -12 -4 -19 82 -20 87 0 121 9 78 20 -24 6 -145 6 -160 0z"/>
    <path d="M646 411 c-9 -14 1 -16 66 -16 32 0 59 5 60 10 4 13 -118 19 -126 6z"/>
    <path d="M493 333 c-32 -11 -7 -20 57 -20 54 0 68 3 60 12 -10 12 -91 17 -117 8z"/>
    <path d="M800 300 c-17 -11 -17 -11 33 -14 23 -2 36 1 34 8 -5 15 -48 19 -67 6z"/>
  </g>
</svg>
