<?xml version="1.0" standalone="no"?>
<!DOCTYPE svg PUBLIC "-//W3C//DTD SVG 20010904//EN"
 "http://www.w3.org/TR/2001/REC-SVG-20010904/DTD/svg10.dtd">
<svg version="1.0" xmlns="http://www.w3.org/2000/svg"
width="87.000000pt" height="85.000000pt" viewBox="0 0 87.000000 85.000000"
preserveAspectRatio="xMidYMid meet">

<g transform="translate(0.000000,85.000000) scale(0.100000,-0.100000)"
fill="#000000" stroke="none">
<path d="M377 792 c-10 -10 -17 -33 -17 -51 0 -24 -6 -34 -25 -43 -22 -10 -30
-8 -55 10 -42 32 -70 28 -113 -16 -42 -43 -46 -70 -15 -112 18 -25 20 -33 10
-55 -9 -19 -19 -25 -45 -25 -49 0 -67 -25 -67 -92 0 -64 19 -88 69 -88 24 0
34 -6 43 -25 10 -22 8 -30 -10 -55 -32 -42 -28 -70 16 -113 43 -42 70 -46 112
-15 25 18 33 20 55 10 19 -9 25 -19 25 -45 0 -49 25 -67 92 -67 64 0 88 19 88
69 0 24 6 34 25 43 22 10 30 8 55 -10 42 -32 70 -28 113 16 42 43 46 70 15
112 -18 25 -20 33 -10 55 9 19 19 25 45 25 49 0 67 25 67 92 0 64 -19 88 -69
88 -24 0 -34 6 -43 25 -10 22 -8 30 10 55 32 42 28 70 -16 113 -43 42 -70 46
-112 15 -25 -18 -33 -20 -55 -10 -19 9 -25 19 -25 45 0 49 -25 67 -92 67 -40
0 -59 -5 -71 -18z m121 -25 c6 -7 12 -30 14 -51 3 -36 7 -41 44 -54 40 -15 42
-14 78 13 l37 28 36 -36 36 -36 -28 -37 c-27 -36 -28 -38 -13 -78 13 -37 18
-41 54 -44 51 -5 64 -17 64 -62 0 -45 -13 -57 -64 -62 -36 -3 -41 -7 -54 -44
-15 -40 -14 -42 13 -78 l28 -37 -36 -36 -36 -36 -37 28 c-36 27 -38 28 -78 13
-37 -13 -41 -18 -44 -54 -5 -51 -17 -64 -62 -64 -45 0 -57 13 -62 64 -3 36 -7
41 -44 54 -40 15 -42 14 -78 -13 l-37 -28 -36 36 -36 36 28 37 c27 36 28 38
13 78 -13 37 -18 41 -54 44 -51 5 -64 17 -64 62 0 45 13 57 64 62 36 3 41 7
54 44 15 40 14 42 -13 78 l-28 37 36 36 36 36 37 -28 c36 -27 38 -28 78 -13
37 13 41 18 44 54 2 21 8 44 14 51 14 17 82 17 96 0z"/>
<path d="M395 565 c-114 -41 -147 -185 -61 -271 89 -89 243 -48 275 74 35 127
-90 242 -214 197z m146 -64 c35 -35 39 -44 39 -91 0 -47 -4 -56 -39 -91 -35
-35 -44 -39 -91 -39 -47 0 -56 4 -91 39 -35 35 -39 44 -39 91 0 47 4 56 39 91
35 35 44 39 91 39 47 0 56 -4 91 -39z"/>
</g>
</svg>
