<?xml version="1.0" standalone="no"?>
<!DOCTYPE svg PUBLIC "-//W3C//DTD SVG 20010904//EN"
 "http://www.w3.org/TR/2001/REC-SVG-20010904/DTD/svg10.dtd">
<svg version="1.0" xmlns="http://www.w3.org/2000/svg"
width="83.000000pt" height="85.000000pt" viewBox="0 0 83.000000 85.000000"
preserveAspectRatio="xMidYMid meet">

<g transform="translate(0.000000,85.000000) scale(0.100000,-0.100000)"
fill="#000000" stroke="none">
<path d="M168 753 l-3 -58 -37 -3 -38 -3 0 -100 c0 -89 -2 -99 -18 -99 -39 0
-42 -16 -42 -236 0 -209 0 -213 22 -228 19 -14 71 -16 359 -16 317 0 338 1
360 19 l24 19 0 252 0 252 -27 20 c-24 17 -28 27 -28 69 l0 49 -35 0 -35 0 0
60 0 60 -250 0 -249 0 -3 -57z m472 -68 l0 -105 -25 0 c-24 0 -25 3 -25 55 l0
55 -200 0 -200 0 0 50 0 50 225 0 225 0 0 -105z m-70 -60 l0 -44 -77 -3 c-78
-3 -78 -3 -95 -37 -9 -19 -23 -38 -30 -42 -7 -5 -55 -9 -105 -9 -55 0 -93 -4
-93 -10 0 -6 41 -10 104 -10 107 0 136 10 136 45 0 36 29 45 140 45 98 0 110
-2 120 -19 12 -23 14 -470 2 -489 -7 -9 -76 -12 -313 -10 l-304 3 0 210 0 210
43 3 c23 2 42 7 42 13 0 5 -4 9 -10 9 -6 0 -10 37 -10 90 l0 90 225 0 225 0 0
-45z m150 -75 c0 -73 4 -120 10 -120 6 0 10 27 10 60 0 47 3 60 15 60 13 0 15
-32 13 -252 l-3 -253 -32 -3 c-19 -2 -33 1 -33 7 0 6 9 11 20 11 19 0 20 7 20
170 0 107 -4 170 -10 170 -6 0 -10 -58 -10 -155 0 -97 -4 -155 -10 -155 -6 0
-10 83 -10 229 0 191 -2 231 -15 241 -10 8 -15 30 -15 61 0 46 2 49 25 49 l25
0 0 -120z"/>
<path d="M170 620 c0 -6 57 -10 150 -10 93 0 150 4 150 10 0 6 -57 10 -150 10
-93 0 -150 -4 -150 -10z"/>
<path d="M170 560 c0 -6 37 -10 90 -10 53 0 90 4 90 10 0 6 -37 10 -90 10 -53
0 -90 -4 -90 -10z"/>
<path d="M374 416 c-3 -8 -4 -31 -2 -52 l3 -39 133 -3 132 -3 0 56 0 55 -130
0 c-103 0 -132 -3 -136 -14z m246 -41 l0 -35 -110 0 -110 0 0 35 0 35 110 0
110 0 0 -35z"/>
</g>
</svg>
