<?xml version="1.0" standalone="no"?>
<!DOCTYPE svg PUBLIC "-//W3C//DTD SVG 20010904//EN"
 "http://www.w3.org/TR/2001/REC-SVG-20010904/DTD/svg10.dtd">
<svg version="1.0" xmlns="http://www.w3.org/2000/svg"
width="82.000000pt" height="79.000000pt" viewBox="0 0 82.000000 79.000000"
preserveAspectRatio="xMidYMid meet">

<g transform="translate(0.000000,79.000000) scale(0.100000,-0.100000)"
fill="#000000" stroke="none">
<path d="M373 750 c-61 -27 -85 -70 -80 -144 3 -53 7 -62 40 -92 l37 -34 -39
0 c-42 0 -51 -11 -51 -61 0 -23 -4 -29 -22 -29 -14 0 -41 -18 -67 -45 -33 -33
-47 -42 -57 -34 -9 7 -26 -4 -64 -42 l-52 -52 108 -108 c60 -60 115 -109 123
-109 24 0 104 90 92 103 -6 8 -2 21 14 39 23 27 28 28 119 28 l94 0 109 116
c59 63 112 122 116 130 12 21 -18 64 -44 64 -13 0 -48 -27 -89 -70 -76 -77
-80 -76 -80 16 l0 54 -40 0 -40 0 37 34 c33 30 37 39 40 92 3 47 0 66 -17 92
-21 33 -87 72 -125 72 -11 0 -39 -9 -62 -20z m143 -43 c71 -65 50 -172 -40
-206 -33 -13 -44 -13 -79 0 -56 20 -82 58 -82 121 0 45 4 53 37 84 31 28 45
34 83 34 37 0 52 -6 81 -33z m42 -264 c3 -10 -26 -13 -122 -13 -116 0 -138 4
-119 24 13 12 236 2 241 -11z m210 -12 c-2 -10 -51 -69 -110 -130 l-107 -111
-92 0 c-87 0 -95 -2 -121 -27 l-29 -27 -72 72 -71 72 44 45 45 46 110 -3 c105
-3 110 -4 113 -25 3 -20 -1 -22 -55 -25 -98 -5 -66 -23 47 -26 l105 -3 80 81
c77 78 120 101 113 61z m-213 -32 c4 -6 5 -12 3 -14 -7 -8 -247 9 -242 16 8
13 231 11 239 -2z m3 -62 c3 -12 -3 -17 -22 -17 -25 0 -35 18 -19 34 12 12 38
2 41 -17z m-338 -147 c50 -49 90 -93 90 -97 0 -9 -52 -63 -61 -63 -8 0 -189
180 -189 188 0 9 53 62 62 62 5 0 49 -40 98 -90z"/>
<path d="M407 680 c-28 -28 -18 -62 21 -72 43 -11 41 -28 -3 -28 -19 0 -35 -4
-35 -10 0 -5 6 -10 14 -10 8 0 17 -7 20 -16 5 -14 10 -13 32 9 36 36 30 71
-13 75 -51 5 -35 32 18 32 10 0 19 5 19 10 0 6 -7 10 -15 10 -8 0 -15 5 -15
10 0 16 -23 11 -43 -10z"/>
</g>
</svg>
