<?xml version="1.0" encoding="UTF-8"?>
<!-- Generator: visioncortex VTracer 0.6.12 -->
<svg xmlns="http://www.w3.org/2000/svg" viewBox="0 0 1024 1024" width="1024" height="1024" aria-hidden="true">
<path d="M0 0 C7.97305207 7.21382641 15.0133405 15.0361006 21.64599609 23.48925781 C22.42458984 24.43929687 23.20318359 25.38933594 24.00537109 26.36816406 C43.12583529 50.20785112 55.56059113 78.16410526 62.45849609 107.80175781 C62.6534668 108.63553955 62.8484375 109.46932129 63.04931641 110.32836914 C66.14594137 124.4447737 67.02756446 138.40395925 66.95849609 152.80175781 C66.95634094 153.61518646 66.95418579 154.42861511 66.95196533 155.26669312 C66.90099004 167.27284882 66.39602786 178.76270724 63.64599609 190.48925781 C63.44731934 191.40352539 63.24864258 192.31779297 63.04394531 193.25976562 C58.6086897 213.58552878 51.42906074 232.16891202 41.64599609 250.48925781 C41.46746094 250.82699219 41.46746094 250.82699219 40.56396484 252.53613281 C35.6330143 261.80562288 30.22064733 270.26804489 23.64599609 278.48925781 C23.00791016 279.33101562 22.36982422 280.17277344 21.71240234 281.04003906 C11.45026706 294.22278205 -0.99160214 306.46745649 -14.35400391 316.48925781 C-14.77423828 316.81216797 -14.77423828 316.81216797 -16.90087891 318.44628906 C-49.80408973 343.12369718 -87.78153533 357.07959534 -128.35400391 362.48925781 C-129.65595703 362.67488281 -130.95791016 362.86050781 -132.29931641 363.05175781 C-139.82054547 363.85320025 -147.42312174 363.73370049 -154.97900391 363.73925781 C-155.80313782 363.73993256 -156.62727173 363.7406073 -157.47637939 363.74130249 C-170.97799954 363.72378493 -184.05710071 362.98319424 -197.35400391 360.48925781 C-198.27713379 360.32296875 -199.20026367 360.15667969 -200.15136719 359.98535156 C-241.0348635 352.45436469 -277.24975073 334.96607127 -308.35400391 307.48925781 C-309.21251953 306.75320313 -310.07103516 306.01714844 -310.95556641 305.25878906 C-327.83532706 290.54928335 -341.06678154 272.72984129 -352.35400391 253.48925781 C-352.70414551 252.89886719 -353.05428711 252.30847656 -353.41503906 251.70019531 C-379.89880179 206.50934624 -385.87679359 151.1244292 -373.10400391 100.80175781 C-366.28616713 75.8887986 -355.67779019 52.35479694 -340.35400391 31.48925781 C-339.93328613 30.91449707 -339.51256836 30.33973633 -339.07910156 29.74755859 C-302.4220525 -19.74841182 -248.6505394 -49.65810101 -188.35400391 -59.51074219 C-187.561875 -59.64351563 -186.76974609 -59.77628906 -185.95361328 -59.91308594 C-118.43736597 -70.8483835 -49.96536698 -44.38511605 0 0 Z " fill="#FEFEFE" transform="translate(664.35400390625,360.5107421875)"/>
<path d="M0 0 C3.63461475 2.12019194 5.48014113 4.12196315 7 8 C7.25480902 11.01989722 7.25480902 11.01989722 7.26171303 14.63985825 C7.26371104 14.97477843 7.26371104 14.97477843 7.27382217 16.66967752 C7.28483621 18.9266486 7.28158859 21.18337601 7.2784729 23.44036865 C7.28347624 25.07345986 7.28935267 26.70654859 7.29602778 28.33963382 C7.31188917 32.84557441 7.31526526 37.35145271 7.31667739 41.85741785 C7.32036538 46.73137095 7.33551837 51.60529 7.34925461 56.47922325 C7.37161289 64.98124328 7.38654913 73.4832512 7.39658737 81.98529434 C7.41133089 94.47057119 7.43721572 106.95580656 7.46546401 119.44105925 C7.51746823 142.61168008 7.55614864 165.78231099 7.59042275 188.95296395 C7.61661692 206.61731033 7.64633633 224.28164755 7.67858887 241.94598389 C7.68316695 244.46196782 7.68774348 246.97795176 7.69231844 249.4939357 C7.69918181 253.26735108 7.70604539 257.04076645 7.71291557 260.81418181 C7.79637779 306.72957034 7.86727158 352.64496976 7.93083477 398.56038976 C7.9734957 429.33162337 8.02376025 460.10282501 8.08691406 490.87402344 C8.14314014 518.27393139 8.19175458 545.67382529 8.22139931 573.07377625 C8.22430323 575.73493451 8.22723026 578.39609274 8.23016357 581.05725098 C8.23087575 581.70545712 8.23087575 581.70545712 8.23447978 584.98577309 C8.24511283 594.02157876 8.26301872 603.05735261 8.28399658 612.09313965 C8.30881103 622.82589916 8.32356413 633.5586082 8.32393897 644.29139769 C8.32435755 649.57240631 8.32921525 654.85329416 8.34758377 660.13427353 C8.36386593 664.84118729 8.36637381 669.54789414 8.35757709 674.25482607 C8.35683903 675.92943797 8.36110286 677.60406178 8.37108541 679.27864408 C8.45707299 694.53487837 6.67824549 707.29430896 -3.84765625 719.06640625 C-14.06355233 728.77884955 -25.78928416 730.48899261 -39.21875 730.2734375 C-50.22406754 729.8399207 -59.18063108 724.56295994 -67.0390625 717.05078125 C-75.50478031 707.88258898 -78.31285957 697.82964549 -78.26501465 685.54992676 C-78.26720528 685.08993168 -78.26720528 685.08993168 -78.27829123 682.76207781 C-78.29055925 679.69615268 -78.28880666 676.63039987 -78.28710938 673.56445312 C-78.29313684 671.35953011 -78.30006192 669.15460939 -78.30781555 666.94969177 C-78.32268193 662.209654 -78.33144808 657.4696582 -78.33552551 652.729599 C-78.34224861 645.23281663 -78.36401376 637.73612394 -78.38806152 630.23937988 C-78.42038329 619.72811835 -78.4472416 609.21685613 -78.46826172 598.70556641 C-78.46959671 598.03930058 -78.4709317 597.37303475 -78.47230715 596.68657905 C-78.48308295 591.28109267 -78.49350249 585.87560562 -78.5039072 580.47011852 C-78.51301764 575.74488988 -78.52227038 571.01966154 -78.53173828 566.29443359 C-78.53240365 565.9617091 -78.53240365 565.9617091 -78.53577083 564.2779215 C-78.55822122 553.17184549 -78.5885052 542.06580178 -78.62413073 530.95976019 C-78.6474629 523.50896326 -78.66121617 516.05822884 -78.66762543 508.60739899 C-78.67356746 503.97118684 -78.68766672 499.33502536 -78.70396996 494.69883919 C-78.70984125 492.55104798 -78.71231915 490.40324438 -78.71113014 488.25544548 C-78.70996856 485.32021391 -78.72100708 482.38526618 -78.73498535 479.45007324 C-78.73333586 479.0267214 -78.73333586 479.0267214 -78.72498846 476.88430452 C-78.80271366 466.97226234 -81.22565339 460.32328078 -88 453 C-91.88893802 449.23753151 -95.93556565 445.67570174 -100.13671875 442.265625 C-111.62679784 432.78461671 -119.08362828 419.76662168 -121 405 C-121.3840158 398.61534204 -121.28414491 392.20698371 -121.2746582 385.8137207 C-121.27901126 383.87241928 -121.28419639 381.93111957 -121.29014587 379.98982239 C-121.30349991 374.73228295 -121.30411732 369.47481559 -121.30158257 364.21726251 C-121.30050796 359.80324872 -121.30540998 355.38924921 -121.310188 350.9752385 C-121.32127608 340.53173983 -121.32172798 330.0882771 -121.31567383 319.64477539 C-121.30966787 308.95012679 -121.32186012 298.25561088 -121.3432439 287.56098491 C-121.36101621 278.3255472 -121.36683598 269.09015106 -121.36360615 259.85469693 C-121.36181389 254.36361317 -121.36421689 248.87262351 -121.37832069 243.38155556 C-121.45316541 211.46770943 -121.16157016 180.08168779 -113 149 C-112.78504883 148.16533203 -112.57009766 147.33066406 -112.34863281 146.47070312 C-104.78117935 117.67139592 -91.36295434 90.15504074 -74 66 C-73.45698242 65.23816406 -72.91396484 64.47632813 -72.35449219 63.69140625 C-65.66791557 54.34275247 -58.89649683 45.36194074 -51 37 C-49.93277054 35.75403551 -48.87020443 34.50406044 -47.8125 33.25 C-39.09578766 23.27937544 -29.54902772 14.01005366 -19 6 C-18.23171875 5.37996094 -17.4634375 4.75992188 -16.671875 4.12109375 C-11.3012796 0.0743689 -6.70607361 -1.38342078 0 0 Z " fill="#2E7D32" transform="translate(881,146)"/>
<path d="M0 0 C2.91798562 2.31869273 4.90622516 4.56133148 6.22265625 8.01953125 C6.46875191 10.99488449 6.46875191 10.99488449 6.46316528 14.5368042 C6.46487413 15.18950672 6.46658298 15.84220925 6.46834362 16.51469064 C6.47163537 18.69968443 6.46064024 20.88437048 6.44970703 23.06933594 C6.44914285 24.63640841 6.44945962 26.20348142 6.45059204 27.77055359 C6.45116628 32.02435955 6.43940046 36.27805292 6.42544413 40.5318327 C6.41294863 44.9774538 6.4117672 49.42307743 6.40939331 53.86871338 C6.40317507 62.28698051 6.38675959 70.70519575 6.36669433 79.12344003 C6.34434604 88.70738185 6.33334459 98.29132614 6.32330346 107.87528753 C6.30239367 127.59006519 6.26680852 147.30479313 6.22265625 167.01953125 C14.47265625 167.01953125 22.72265625 167.01953125 31.22265625 167.01953125 C31.21710472 166.01768295 31.21710472 166.01768295 31.18901062 160.94772339 C31.08686744 142.08354971 31.01244149 123.21941246 30.96359539 104.35502434 C30.93781434 94.65616819 30.90266569 84.95751496 30.84545898 75.25878906 C30.79562101 66.805314 30.76336451 58.3519859 30.75221378 49.898368 C30.74569567 45.42221199 30.73037851 40.94647642 30.69400597 36.47045517 C30.66004012 32.25641693 30.64960436 28.04297186 30.65711784 23.82880974 C30.65574355 22.28324217 30.64581407 20.73765454 30.62662888 19.19220543 C30.47157552 6.05644095 30.47157552 6.05644095 33.57063293 2.11575317 C37.5721982 -1.04717861 40.99647072 -1.38027675 45.93359375 -1.33203125 C49.88310693 -0.72545073 51.5246682 1.12412944 54.22265625 4.01953125 C56.48187086 7.50080081 56.46963072 10.43771947 56.46316528 14.5368042 C56.46487413 15.18950672 56.46658298 15.84220925 56.46834362 16.51469064 C56.47163537 18.69968443 56.46064024 20.88437048 56.44970703 23.06933594 C56.44914285 24.63640841 56.44945962 26.20348142 56.45059204 27.77055359 C56.45116628 32.02435955 56.43940046 36.27805292 56.42544413 40.5318327 C56.41294863 44.9774538 56.4117672 49.42307743 56.40939331 53.86871338 C56.40317507 62.28698051 56.38675959 70.70519575 56.36669433 79.12344003 C56.34434604 88.70738185 56.33334459 98.29132614 56.32330346 107.87528753 C56.30239367 127.59006519 56.26680852 147.30479313 56.22265625 167.01953125 C64.14265625 167.01953125 72.06265625 167.01953125 80.22265625 167.01953125 C80.2137738 165.01361404 80.20489136 163.00769684 80.19573975 160.94099426 C80.11404848 142.06177148 80.05449521 123.18257197 80.01540756 104.30321217 C79.99477703 94.59652036 79.96664703 84.8899582 79.92089844 75.18334961 C79.88104573 66.7236587 79.85522701 58.26406168 79.84630227 49.80427951 C79.84108486 45.32430983 79.82881191 40.84460875 79.79973602 36.36472511 C79.77259161 32.14828401 79.76420923 27.93222223 79.77022552 23.71570206 C79.76912485 22.16811372 79.76116494 20.62051274 79.74583435 19.07299995 C79.72592045 16.95919641 79.73072055 14.84682335 79.74163818 12.73298645 C79.73795101 11.55032605 79.73426384 10.36766565 79.73046494 9.14916706 C80.32427409 5.37338651 81.59077666 3.73689955 84.22265625 1.01953125 C88.31748907 -1.66440868 92.4806256 -1.5233846 97.22265625 -0.98046875 C101.49386556 0.7837264 103.1952394 2.92900455 105.22265625 7.01953125 C105.59179974 10.13354969 105.59179974 10.13354969 105.5834198 13.69502258 C105.58598307 14.35266308 105.58854635 15.01030359 105.5911873 15.68787259 C105.59611485 17.88372003 105.57965022 20.07887448 105.56323242 22.2746582 C105.56238592 23.85173018 105.56286174 25.42880334 105.56455994 27.00587463 C105.56542043 31.28240543 105.54778599 35.55868362 105.52683806 39.83515573 C105.50808024 44.30612166 105.50632153 48.77709344 105.50276184 53.24809265 C105.49343875 61.71239815 105.46882138 70.17658736 105.43871337 78.64084166 C105.4051776 88.2780009 105.38868542 97.9151657 105.37362707 107.55236876 C105.34227207 127.37482291 105.28890188 147.19716566 105.22265625 167.01953125 C113.14265625 167.01953125 121.06265625 167.01953125 129.22265625 167.01953125 C129.21155319 165.01583466 129.20045013 163.01213806 129.18901062 160.94772339 C129.08686744 142.08354971 129.01244149 123.21941246 128.96359539 104.35502434 C128.93781434 94.65616819 128.90266569 84.95751496 128.84545898 75.25878906 C128.79562101 66.805314 128.76336451 58.3519859 128.75221378 49.898368 C128.74569567 45.42221199 128.73037851 40.94647642 128.69400597 36.47045517 C128.66004012 32.25641693 128.64960436 28.04297186 128.65711784 23.82880974 C128.65574355 22.28324217 128.64581407 20.73765454 128.62662888 19.19220543 C128.47153819 6.05327878 128.47153819 6.05327878 131.63313293 2.11575317 C136.09165159 -1.4934225 139.62975438 -1.5048033 145.22265625 -0.98046875 C149.85098017 0.87086082 151.81014438 3.73429796 154.22265625 8.01953125 C154.59839112 10.73437202 154.7609779 13.03477732 154.72386169 15.73936462 C154.72662889 16.1184483 154.72662889 16.1184483 154.74063259 18.03684145 C154.75420421 20.56778565 154.73928893 23.09773765 154.72436523 25.62866211 C154.72814998 27.44755471 154.7336513 29.26644442 154.74073792 31.08532715 C154.75469846 36.02189456 154.74351446 40.95811359 154.7270267 45.89466166 C154.71315596 51.07264513 154.71963931 56.25060877 154.72315979 61.42860413 C154.72586248 70.13353059 154.71238864 78.83831924 154.68920898 87.54321289 C154.66267411 97.57691878 154.66082801 107.61039317 154.67259735 117.64412206 C154.68342179 127.32010069 154.67714674 136.99599638 154.66304207 146.67196846 C154.65731501 150.77644395 154.65733915 154.88085809 154.66210747 158.9853344 C154.66692102 163.83552395 154.65659648 168.68546414 154.63515282 173.53560638 C154.62964107 175.3047279 154.6290672 177.07387367 154.63410568 178.8429966 C154.69476842 203.2222854 149.10663585 224.58841629 132.03515625 242.70703125 C125.54578571 248.88847032 117.83563844 254.91767238 109.65472811 258.64522177 C107.76974585 259.73034192 107.76974585 259.73034192 106.22265625 261.01953125 C105.35786945 264.27777523 105.35786945 264.27777523 105.3724947 268.23773098 C105.36561617 268.96951741 105.35873765 269.70130384 105.35165069 270.45526561 C105.33706361 272.92181492 105.37266243 275.38511882 105.40779114 277.85142517 C105.40760307 279.63165379 105.40432705 281.41188434 105.39821929 283.19210249 C105.39030713 288.09529713 105.42613532 292.9973612 105.46883309 297.90034068 C105.50720473 303.18410219 105.50517496 308.46786105 105.50782776 313.7517395 C105.5178136 322.9129787 105.5530314 332.07384339 105.6048069 341.23493767 C105.67935461 354.49453199 105.71151462 367.75396857 105.73250433 381.01374359 C105.76736613 402.54418229 105.83056056 424.07443534 105.91430664 445.60473633 C105.91681052 446.24936841 105.91681052 446.24936841 105.92948165 449.5115974 C105.93962645 452.12079745 105.94977336 454.72999749 105.95992238 457.33919752 C105.96495037 458.63266273 105.96997835 459.92612794 105.97515869 461.25878906 C105.98019606 462.55330566 105.98523344 463.84782225 105.99042346 465.18156662 C106.0458682 479.54135481 106.09415025 493.90116424 106.13989258 508.26098633 C106.14194292 508.9034703 106.14194292 508.9034703 106.15231887 512.1548286 C106.22011372 533.5924556 106.27174526 555.03010143 106.31431788 576.46779257 C106.34155276 589.69009834 106.38480518 602.91217726 106.44884767 616.13435704 C106.49203849 625.20074707 106.52143228 634.26711217 106.54006938 643.33358573 C106.55138905 648.56255336 106.56942175 653.79127796 106.60527039 659.02013969 C106.63805421 663.81270692 106.65212568 668.60496138 106.65174087 673.39763732 C106.65489397 675.12589423 106.66482097 676.85415581 106.68243752 678.58232581 C106.82946227 693.61630099 104.8179482 706.78082972 94.1875 718.20703125 C85.83274156 726.22288414 76.12910102 729.42290553 64.640625 729.23046875 C54.09328552 728.31034544 44.01222668 722.8138831 36.8203125 715.12890625 C29.16525686 705.02198683 26.90830726 694.15731314 26.96585083 681.78488159 C26.96259265 680.78824804 26.95933447 679.79161449 26.95597756 678.76477993 C26.94788778 675.43019555 26.95443853 672.09581498 26.96142578 668.76123047 C26.95970099 666.34658886 26.95731056 663.93194765 26.95431137 661.51730728 C26.9500496 655.58700051 26.95646679 649.65676109 26.96856257 643.72647014 C26.97852634 638.8073909 26.98414094 633.88832232 26.98758316 628.96923447 C27.02394105 582.67924815 27.45354526 536.39632788 28.02776241 490.110219 C28.08998289 485.09015003 28.15099699 480.07006685 28.2117691 475.04998016 C28.33391291 464.96820014 28.45743601 454.88643753 28.58203125 444.8046875 C28.58717333 444.38850337 28.58717333 444.38850337 28.61319536 442.28235942 C28.86847026 421.64652899 29.13908439 401.01099281 29.43098925 380.37564768 C29.63596645 365.8466433 29.81816887 351.31747186 29.98008835 336.78792369 C30.07946235 327.94390775 30.19714109 319.10053464 30.33944137 310.25710319 C30.43390369 304.289311 30.50681272 298.32151059 30.56217389 292.35322823 C30.59469297 288.92083163 30.63718878 285.48929283 30.70576286 282.05741119 C30.77483371 278.35119919 30.80738465 274.64646856 30.83029175 270.93972778 C30.85944164 269.85001651 30.88859154 268.76030524 30.91862476 267.63757241 C30.91455842 264.96311501 30.89824732 262.60724148 30.22265625 260.01953125 C27.38853645 258.46177483 27.38853645 258.46177483 24.22265625 258.01953125 C21.90047906 256.59841443 19.72798639 255.17737591 17.53515625 253.58203125 C16.92647705 253.13956055 16.31779785 252.69708984 15.69067383 252.24121094 C-2.21285844 238.91133446 -13.5184591 221.00458443 -17.77734375 199.01953125 C-18.53798611 193.68955979 -18.92595725 188.49976499 -18.92451477 183.11251831 C-18.92819146 182.35854267 -18.93186815 181.60456703 -18.93565625 180.82774365 C-18.94659118 178.32379461 -18.95051927 175.81988719 -18.9543457 173.31591797 C-18.9606176 171.51168692 -18.96726504 169.70745715 -18.97425842 167.90322876 C-18.9951984 162.00190107 -19.00564492 156.1005734 -19.015625 150.19921875 C-19.01967501 148.16369743 -19.02379201 146.12817624 -19.02797508 144.09265518 C-19.0469972 134.53628664 -19.06123972 124.97992572 -19.06958705 115.4235419 C-19.07937694 104.39931304 -19.10575453 93.37528401 -19.14608794 82.3511256 C-19.17622536 73.82100309 -19.19105329 65.29093801 -19.19436806 56.76076329 C-19.19671935 51.66889815 -19.20569177 46.57724727 -19.23082924 41.4854393 C-19.25407627 36.70008678 -19.25835681 31.91509021 -19.24806786 27.12969589 C-19.24757172 25.37450986 -19.25391495 23.61930646 -19.2676239 21.86417389 C-19.2853034 19.46654733 -19.27825733 17.07020419 -19.26509094 14.6725769 C-19.27606019 13.97957642 -19.28702943 13.28657594 -19.29833108 12.57257545 C-19.2329255 7.63369105 -17.858935 4.8276305 -14.77734375 1.01953125 C-10.45321277 -1.62299324 -4.56295245 -2.5171452 0 0 Z " fill="#2E7D32" transform="translate(154.77734375,147.98046875)"/>
<path d="M0 0 C7.97305207 7.21382641 15.0133405 15.0361006 21.64599609 23.48925781 C22.42458984 24.43929687 23.20318359 25.38933594 24.00537109 26.36816406 C43.12583529 50.20785112 55.56059113 78.16410526 62.45849609 107.80175781 C62.6534668 108.63553955 62.8484375 109.46932129 63.04931641 110.32836914 C66.14594137 124.4447737 67.02756446 138.40395925 66.95849609 152.80175781 C66.95634094 153.61518646 66.95418579 154.42861511 66.95196533 155.26669312 C66.90099004 167.27284882 66.39602786 178.76270724 63.64599609 190.48925781 C63.44731934 191.40352539 63.24864258 192.31779297 63.04394531 193.25976562 C58.6086897 213.58552878 51.42906074 232.16891202 41.64599609 250.48925781 C41.46746094 250.82699219 41.46746094 250.82699219 40.56396484 252.53613281 C35.6330143 261.80562288 30.22064733 270.26804489 23.64599609 278.48925781 C23.00791016 279.33101562 22.36982422 280.17277344 21.71240234 281.04003906 C11.45026706 294.22278205 -0.99160214 306.46745649 -14.35400391 316.48925781 C-14.77423828 316.81216797 -14.77423828 316.81216797 -16.90087891 318.44628906 C-49.80408973 343.12369718 -87.78153533 357.07959534 -128.35400391 362.48925781 C-129.65595703 362.67488281 -130.95791016 362.86050781 -132.29931641 363.05175781 C-139.82054547 363.85320025 -147.42312174 363.73370049 -154.97900391 363.73925781 C-155.80313782 363.73993256 -156.62727173 363.7406073 -157.47637939 363.74130249 C-170.97799954 363.72378493 -184.05710071 362.98319424 -197.35400391 360.48925781 C-198.27713379 360.32296875 -199.20026367 360.15667969 -200.15136719 359.98535156 C-241.0348635 352.45436469 -277.24975073 334.96607127 -308.35400391 307.48925781 C-309.21251953 306.75320313 -310.07103516 306.01714844 -310.95556641 305.25878906 C-327.83532706 290.54928335 -341.06678154 272.72984129 -352.35400391 253.48925781 C-352.70414551 252.89886719 -353.05428711 252.30847656 -353.41503906 251.70019531 C-379.89880179 206.50934624 -385.87679359 151.1244292 -373.10400391 100.80175781 C-366.28616713 75.8887986 -355.67779019 52.35479694 -340.35400391 31.48925781 C-339.93328613 30.91449707 -339.51256836 30.33973633 -339.07910156 29.74755859 C-302.4220525 -19.74841182 -248.6505394 -49.65810101 -188.35400391 -59.51074219 C-187.561875 -59.64351563 -186.76974609 -59.77628906 -185.95361328 -59.91308594 C-118.43736597 -70.8483835 -49.96536698 -44.38511605 0 0 Z M-308.35400391 34.48925781 C-317.16059436 44.64841972 -324.1820256 55.57934056 -330.35400391 67.48925781 C-330.98522822 68.67300417 -331.61673093 69.85660212 -332.24853516 71.04003906 C-346.3438547 98.15587166 -352.91644938 128.96600289 -351.35400391 159.48925781 C-351.33539307 159.85962158 -351.33539307 159.85962158 -351.24121094 161.73388672 C-348.24552551 212.15577145 -323.07242892 255.9335021 -286.35400391 289.48925781 C-259.86949508 312.40325301 -224.69814641 327.61723345 -190.35400391 333.48925781 C-189.68933105 333.60495117 -189.0246582 333.72064453 -188.33984375 333.83984375 C-158.63150554 338.7152808 -127.10426869 335.95785235 -98.35400391 327.48925781 C-97.65710449 327.28494141 -96.96020508 327.080625 -96.2421875 326.87011719 C-69.97565488 318.92012173 -44.80757694 304.7716054 -24.35400391 286.48925781 C-23.8393457 286.03341309 -23.3246875 285.57756836 -22.79443359 285.10791016 C11.57054899 254.55790367 35.55731364 210.9210657 38.64599609 164.48925781 C40.68886319 113.07506388 25.10284143 66.52735854 -9.76367188 28.20849609 C-45.54164714 -10.46950541 -94.84180995 -32.77504281 -147.40283203 -35.67919922 C-209.65535605 -38.10238379 -266.81612552 -10.94528815 -308.35400391 34.48925781 Z " fill="#2E7D32" transform="translate(664.35400390625,360.5107421875)"/>
<path d="M0 0 C0.33 0 0.66 0 1 0 C1.05140651 62.25153516 1.0991066 124.50307278 1.12702942 186.75462341 C1.1272365 187.21512439 1.1272365 187.21512439 1.12828448 189.54553842 C1.13726272 209.56027451 1.14557334 229.57501082 1.15319599 249.58974746 C1.15693807 259.40463963 1.16082772 269.21953174 1.16479492 279.03442383 C1.1651872 280.01113564 1.16557948 280.98784744 1.16598364 281.99415658 C1.17877297 313.66542007 1.20131085 345.33666754 1.22889166 377.00792131 C1.25717765 409.54794805 1.27565359 442.0879659 1.28174497 474.62800472 C1.28260946 479.22161212 1.28358638 483.81521948 1.28463173 488.40882683 C1.28473286 488.86088105 1.28473286 488.86088105 1.28524467 491.14854941 C1.28879302 505.71580532 1.30271581 520.28303382 1.3204961 534.85027854 C1.33814064 549.48703595 1.34490825 564.12376614 1.34050413 578.76053382 C1.33821839 587.46183279 1.34434128 596.16303226 1.36239263 604.8643133 C1.37362283 610.67328358 1.37400473 616.48218853 1.36549544 622.29116327 C1.36095628 625.60330941 1.36284913 628.91522846 1.37464955 632.22736222 C1.3866201 635.79337697 1.38024134 639.35889827 1.36914349 642.92490482 C1.37308401 643.44033123 1.37308401 643.44033123 1.39302543 646.04870126 C1.35234152 651.80070576 0.84304985 655.95036943 -2 661 C-6.72586997 664.74131373 -10.71385836 666.44098298 -16.8046875 666.33984375 C-20.81859535 665.71847367 -24.15417916 663.87106093 -27 661 C-29.93375875 655.4024735 -30.42758927 650.92466229 -30.37181091 644.66586304 C-30.37372319 644.20601731 -30.37372319 644.20601731 -30.3834005 641.87891924 C-30.39266082 638.80763261 -30.3807093 635.73679969 -30.36889648 632.66552734 C-30.37136531 630.45901299 -30.37520455 628.25249981 -30.38031006 626.04598999 C-30.38864279 621.2982734 -30.3878447 616.55067677 -30.38012505 611.80295944 C-30.36853048 604.28806779 -30.38071546 596.77333002 -30.39674377 589.25845337 C-30.41717476 578.71510673 -30.43004979 568.17178189 -30.43383789 557.62841797 C-30.43408276 556.95990758 -30.43432763 556.29139718 -30.43457992 555.6026289 C-30.43712346 548.1516302 -30.43769381 540.70063281 -30.43664551 533.24963379 C-30.4363125 530.55102539 -30.43602709 527.852417 -30.43579102 525.15380859 C-30.43572823 524.4879369 -30.43566544 523.8220652 -30.43560075 523.13601558 C-30.4349944 512.00394525 -30.45013668 500.87194521 -30.47662407 489.73990595 C-30.4933785 482.27786257 -30.49165664 474.8161267 -30.47580135 467.35408473 C-30.46998414 462.69902391 -30.48078134 458.04410729 -30.49604797 453.38907242 C-30.49975883 451.24015114 -30.49671093 449.09120519 -30.48617744 446.94230652 C-30.39897973 427.87332945 -32.92785391 411.93386822 -46.9375 397.6875 C-50.55304134 394.25793204 -54.27746956 390.96447457 -58.0546875 387.71484375 C-66.23083481 380.50735646 -73.52486582 373.44550965 -74.25447559 362.01228333 C-74.26670146 360.46762715 -74.26806377 358.92286082 -74.26069641 357.37817383 C-74.26452196 356.52285663 -74.26834751 355.66753942 -74.27228898 354.78630352 C-74.28258902 351.92648317 -74.2786323 349.06686474 -74.2746582 346.20703125 C-74.2790068 344.15319636 -74.28419044 342.09936309 -74.29014587 340.04553223 C-74.30354329 334.46605764 -74.30411283 328.88665078 -74.30158257 323.30716324 C-74.3005116 318.63651328 -74.3054004 313.96587695 -74.310188 309.29522991 C-74.32128954 298.2567054 -74.32171944 287.2182149 -74.31567383 276.1796875 C-74.30965702 264.83852 -74.32188501 253.49747728 -74.3432439 242.15633106 C-74.36095034 232.39118319 -74.36684639 222.62607467 -74.36360615 212.86091137 C-74.36180469 207.04197491 -74.36431308 201.22312709 -74.37832069 195.40420532 C-74.39103915 189.91464391 -74.38882464 184.42527372 -74.37590981 178.93571472 C-74.37357317 176.93892854 -74.37617168 174.94212832 -74.38453293 172.94535828 C-74.45591119 154.54723096 -72.70703177 136.42430857 -67.875 118.625 C-67.5749707 117.50198486 -67.27494141 116.37896973 -66.96582031 115.22192383 C-56.82049226 78.41279144 -38.40411192 42.26138641 -12.10546875 14.28515625 C-8.81581894 10.71475711 -5.79982613 6.92756255 -2.75 3.15234375 C-1 1 -1 1 0 0 Z " fill="#FEFEFE" transform="translate(861,184)"/>
<path d="M0 0 C40.59 0 81.18 0 123 0 C120.65274847 12.90988342 120.65274847 12.90988342 117.4375 19.0625 C117.08816406 19.74296387 116.73882812 20.42342773 116.37890625 21.12451172 C109.09007167 34.7490753 97.79279873 42.40642548 84.359375 49.2109375 C83.59625 49.61570312 82.833125 50.02046875 82.046875 50.4375 C81.36463867 50.78683594 80.68240234 51.13617188 79.97949219 51.49609375 C76.091128 54.45025302 74.17517329 57.7450798 73.50254732 62.56369054 C73.48342313 63.91005872 73.48598029 65.25684811 73.50615788 66.60320091 C73.50135211 67.3523 73.49654634 68.10139909 73.49159494 68.87319815 C73.48033624 71.38573729 73.49759467 73.89726492 73.5146637 76.40975952 C73.51236914 78.22827625 73.50830523 80.04679147 73.50262302 81.86530077 C73.49204146 86.86451477 73.50630284 91.86339906 73.52448976 96.86257982 C73.53970292 102.25327688 73.53178578 107.64394382 73.52645874 113.03465271 C73.52018476 122.37689227 73.52796485 131.7190349 73.54471016 141.06126022 C73.56847951 154.57729602 73.56553827 168.09322723 73.55508172 181.60927518 C73.53837078 203.54909445 73.53581587 225.48888802 73.5456543 247.42871094 C73.54623724 248.74208056 73.54682018 250.05545018 73.54742079 251.40861888 C73.55414935 266.0622702 73.56322125 280.71591887 73.57373047 295.36956787 C73.57747042 300.68322749 73.58113 305.99688715 73.5847168 311.31054688 C73.58516225 311.96612962 73.58516225 311.96612962 73.58741654 315.28377561 C73.60170266 337.13846217 73.59659281 358.99309902 73.57679409 380.84778082 C73.56545935 394.33122609 73.5712733 407.81445619 73.59907293 421.29787864 C73.61694782 430.53526881 73.61711401 439.77254932 73.60328431 449.00994609 C73.59592216 454.34160202 73.59684493 459.67292934 73.61956978 465.00454903 C73.64023472 469.88510159 73.63795089 474.76508459 73.61741316 479.6456327 C73.61407067 481.41140341 73.61920311 483.1772147 73.63365562 484.94292943 C73.75599493 500.87378361 73.75599493 500.87378361 69.36519188 506.6756779 C66.57015938 509.38703546 64.48148055 510.32610506 60.6875 510.4375 C57.20813796 510.36938851 55.22253441 509.87607487 52.5 507.6875 C48.67142448 503.57178132 48.86000133 500.07785657 48.89091873 494.7503252 C48.89126287 494.00299927 48.89160701 493.25567334 48.89196157 492.48570117 C48.89434244 489.96144936 48.90392141 487.43727463 48.91339111 484.91304016 C48.91653321 483.09299148 48.91922128 481.27294198 48.92149234 479.45289201 C48.92741855 475.48528829 48.93655269 471.51770885 48.94808578 467.55011749 C48.9668283 461.09538407 48.97871819 454.64064845 48.98971558 448.18589783 C49.00412347 440.03034789 49.02040435 431.8748052 49.03885099 423.7192634 C49.07506743 407.69348132 49.09897529 391.66770195 49.11834717 375.64189148 C49.12145772 373.12066357 49.12457539 370.59943568 49.12770009 368.07820779 C49.13242603 364.25689933 49.13714412 360.43559085 49.14183249 356.61428234 C49.15956465 342.19964004 49.17864424 327.78499986 49.19921875 313.37036133 C49.20015728 312.71133296 49.20015728 312.71133296 49.20490679 309.37624999 C49.23579739 288.01641056 49.28143897 266.65662781 49.33162847 245.29682551 C49.38269336 223.37898025 49.41469073 201.4611628 49.42977214 179.54326314 C49.43974867 166.01777892 49.46515044 152.49249996 49.51022884 138.9670864 C49.53976489 129.69885052 49.55108505 120.43070573 49.54799369 111.16242371 C49.54677369 105.81254733 49.55376949 100.46300726 49.58256912 95.11320114 C49.60876449 90.21589794 49.61191365 85.31914158 49.5967072 80.42179694 C49.59528716 78.64987056 49.60234929 76.8779129 49.61873713 75.10606173 C49.75829653 59.13257845 49.75829653 59.13257845 45.43142962 53.35012501 C42.72054535 50.79321784 39.6547343 49.36444011 36.25 47.9375 C29.78617729 44.9667643 24.32333274 41.79099947 19 37 C18.401875 36.505 17.80375 36.01 17.1875 35.5 C7.99120305 27.28902058 2.6502471 14.80406109 0 3 C0 2.01 0 1.02 0 0 Z " fill="#FCFDFC" transform="translate(161,339)"/>
<path d="M0 0 C4.36184196 1.82588733 7.63292308 4.91141259 10 9 C11.66751169 13.20212945 11.5991045 16.47561188 9.9453125 20.68359375 C-1.42491232 41.52900593 -20.89950286 60.92118978 -39 76 C-39.53157715 76.45068848 -40.0631543 76.90137695 -40.61083984 77.36572266 C-50.90080205 86.07090278 -61.61197957 93.79612614 -73 101 C-73.65887207 101.41765625 -74.31774414 101.8353125 -74.99658203 102.265625 C-84.35797847 108.15143282 -94.01656113 113.25646279 -104 118 C-104.74846191 118.3609375 -105.49692383 118.721875 -106.26806641 119.09375 C-134.30914942 132.54506278 -164.30021054 140.46736355 -195 145 C-195.55921143 145.08938843 -195.55921143 145.08938843 -198.38916016 145.54174805 C-210.69930901 147.32911606 -222.95382276 147.35565713 -235.375 147.3125 C-236.48627258 147.31034485 -237.59754517 147.3081897 -238.74249268 147.30596924 C-255.00951111 147.25528404 -270.95619444 146.93688631 -287 144 C-288.08651855 143.80664062 -289.17303711 143.61328125 -290.29248047 143.4140625 C-342.90179364 133.77435235 -394.33416952 111.72917668 -434.3125 75.625 C-434.84609131 75.14925537 -435.37968262 74.67351074 -435.92944336 74.18334961 C-439.76746071 70.60708642 -442.73046775 66.98445712 -443.21484375 61.62109375 C-442.5863466 56.67278522 -441.81924596 53.50957737 -438 50 C-433.57331558 47.14724782 -430.23420071 46.35720342 -425 47 C-420.38001148 49.00490068 -417.18872541 51.66033673 -413.5 55.0625 C-401.90308245 65.73375997 -388.63151217 74.17882268 -375 82 C-374.20916016 82.45375 -373.41832031 82.9075 -372.60351562 83.375 C-310.71867068 118.36851875 -235.90543946 128.36051605 -167.26928711 109.72998047 C-123.29742822 97.27833902 -82.49593601 74.98321289 -49.09375 43.75 C-47 42 -47 42 -44 41 C-44 40.34 -44 39.68 -44 39 C-42.59550732 37.83529875 -41.18779331 36.67430117 -39.765625 35.53125 C-36.48162177 32.68317641 -33.77927011 29.33057727 -31 26 C-30.29746094 25.16210938 -29.59492187 24.32421875 -28.87109375 23.4609375 C-24.04733084 17.6388654 -19.51906156 11.69349405 -15.140625 5.53125 C-10.75887487 0.34991043 -6.53137543 -0.9577577 0 0 Z " fill="#2E7D32" transform="translate(744,645)"/>
<path d="M0 0 C0.77182617 0.16193848 1.54365234 0.32387695 2.33886719 0.49072266 C55.67758952 11.78634962 104.34321268 38.33665705 144.5625 74.875 C145.07586914 75.3397876 145.58923828 75.8045752 146.11816406 76.28344727 C149.76236782 79.63953039 151.86684351 81.66843513 152.375 86.75 C152.23463619 91.51359691 150.84462046 94.18221991 148 98 C143.68266618 100.9741633 140.18923924 101.6486549 135 101 C130.34005585 98.26565261 126.70192587 94.92887611 122.875 91.1875 C89.87396812 59.86205676 48.6144624 39.6171659 5 28 C4.04407959 27.7414624 3.08815918 27.4829248 2.10327148 27.21655273 C-18.33797103 21.8683084 -39.09469489 20.61463695 -60.125 20.625 C-61.00995148 20.62327789 -61.89490295 20.62155579 -62.80667114 20.61978149 C-80.0701892 20.62358884 -97.38546094 21.61504818 -114.3125 25.1875 C-115.34318604 25.40035645 -116.37387207 25.61321289 -117.43579102 25.83251953 C-143.56299668 31.41971892 -169.11771781 40.47630555 -192.75 53 C-196.35016452 54.81857626 -198.91042782 55.8365034 -203 55 C-206.6578218 52.96006092 -208.66946174 51.49580738 -211 48 C-211.3359375 45.94921875 -211.3359375 45.94921875 -211.375 43.6875 C-211.40335937 42.94886719 -211.43171875 42.21023438 -211.4609375 41.44921875 C-210.78382569 37.85134499 -209.59492752 35.52143535 -207 33 C-203.01855242 30.37821214 -198.82352383 28.25390221 -194.5625 26.125 C-193.95842316 25.81874695 -193.35434631 25.5124939 -192.73196411 25.19696045 C-181.76869449 19.64274814 -170.66201767 14.89011589 -159 11 C-158.01773438 10.66806641 -157.03546875 10.33613281 -156.0234375 9.99414062 C-105.77290695 -6.78752152 -52.00431624 -11.40314634 0 0 Z " fill="#2E7D32" transform="translate(569,241)"/>
<path d="M0 0 C3.86863108 2.38565584 6.54966467 4.64899402 8 9 C8.3823833 13.66507623 8.47936179 16.04127641 6.375 20.25 C1.95948999 25.3626958 -3.58361837 27.84872424 -9.6875 30.375 C-20.58523085 35.03992786 -29.95024375 40.26201624 -39 48 C-39.75023437 48.60457031 -40.50046875 49.20914063 -41.2734375 49.83203125 C-59.82783717 65.29403097 -73.83391462 92.12085002 -77 116 C-77.16118668 118.5407392 -77.30565184 121.0825695 -77.4375 123.625 C-77.8532063 130.66382362 -78.20264472 135.40732925 -83.5625 140.375 C-87.6916939 143.12779593 -91.08274625 143.65135264 -96 143 C-100.82252681 140.58873659 -103.79132769 137.92703823 -106 133 C-109.19209538 102.9943034 -96.51130842 71.29369437 -78.4140625 47.94140625 C-62.94034462 29.08750728 -45.11784964 15.55394093 -23.0625 5.1875 C-22.03576172 4.69830078 -21.00902344 4.20910156 -19.95117188 3.70507812 C-7.69960598 -2.10336918 -7.69960598 -2.10336918 0 0 Z " fill="#2E7D32" transform="translate(468,369)"/>
<path d="M0 0 C3.42282723 2.33374584 4.94672394 4.12973434 6.75 7.875 C7.58789963 12.64589788 7.23903673 15.93185774 5 20.25 C1.24231732 24.63396312 -1.65626089 26.62560201 -7.5 27.1875 C-12.98248444 26.7306263 -16.40966007 24.89343734 -20.1875 20.75 C-21.80967503 16.36058521 -22.24679482 12.47559148 -21.25 7.875 C-16.1674038 -0.41979699 -9.32924048 -3.22935247 0 0 Z " fill="#2E7D32" transform="translate(508.25,363.125)"/>
<path d="M0 0 C3.6502764 2.1293279 5.41670268 4.13902641 7 8 C7.24313563 10.33063436 7.24313563 10.33063436 7.2332716 12.95875931 C7.234387 13.96297464 7.2355024 14.96718997 7.2366516 16.00183606 C7.22761709 17.10299591 7.21858258 18.20415576 7.20927429 19.33868408 C7.20760516 20.50999776 7.20593602 21.68131143 7.2042163 22.88811946 C7.19753097 26.14001355 7.18179389 29.39171989 7.1622473 32.64355755 C7.14335303 36.14997455 7.13605753 39.65641797 7.12731934 43.16287231 C7.10835626 50.0311549 7.0786314 56.89935104 7.04527863 63.7675772 C7.0068625 71.75865522 6.97896191 79.74975942 6.95149157 87.74088129 C6.90213255 101.99200703 6.84304537 116.243076 6.77856445 130.49414062 C6.71593099 144.33852032 6.66035289 158.18290479 6.61254883 172.02734375 C6.60960179 172.88057359 6.60665475 173.73380343 6.60361841 174.61288872 C6.60214774 175.03875029 6.60214774 175.03875029 6.59470528 177.19386792 C6.54028142 192.93716354 6.47928775 208.68042771 6.4151988 224.42368676 C6.39264398 230.0011952 6.37204947 235.57870897 6.3520565 241.15622711 C6.3275905 247.94504355 6.299363 254.7338326 6.26635798 261.52261308 C6.24957223 264.98989333 6.23439765 268.45716099 6.22349739 271.92446518 C6.21084664 275.67276586 6.19210293 279.42098535 6.17167664 283.16925049 C6.17050546 283.72429186 6.17050546 283.72429186 6.16457862 286.53313756 C6.15787077 287.5269219 6.15116293 288.52070624 6.14425182 289.54460526 C6.14238073 289.97792117 6.14238073 289.97792117 6.13291186 292.1707623 C6.1109814 292.47258652 6.1109814 292.47258652 6 294 C5.67 294 5.34 294 5 294 C4.89789475 292.51255722 4.87334767 291.01993081 4.87250805 289.52898788 C4.8695004 288.53172015 4.86649275 287.53445241 4.86339396 286.50696445 C4.86426915 285.9499776 4.86426915 285.9499776 4.86869812 283.13128662 C4.86658241 281.96212936 4.86446669 280.79297209 4.86228687 279.58838582 C4.85730428 276.32384652 4.85679407 273.05933992 4.85802758 269.79479814 C4.85824193 266.28139186 4.85267433 262.76799486 4.84762573 259.2545929 C4.83949629 253.1600724 4.83456322 247.06555611 4.83133507 240.97103119 C4.82585003 231.34209928 4.8089641 221.71320303 4.78999329 212.08428955 C4.78363583 208.79330069 4.77732749 205.50231173 4.77101612 202.21132278 C4.76943236 201.38875893 4.7678486 200.56619508 4.76621684 199.71870504 C4.74826394 190.34583848 4.73204584 180.97296939 4.71704102 171.60009766 C4.71635308 171.17146906 4.71635308 171.17146906 4.71287171 169.00234857 C4.69094403 155.11172046 4.68018675 141.22110145 4.67267027 127.33045909 C4.66460521 113.08320241 4.64133322 98.83602407 4.6047166 84.58881211 C4.58266056 75.79358796 4.57303639 66.99852476 4.57921693 58.20327434 C4.58238641 52.17654798 4.57109537 46.14995922 4.54832252 40.12327543 C4.53562707 36.64327386 4.52951771 33.16357872 4.54073906 29.68356514 C4.54955813 25.91427792 4.53404494 22.14586389 4.51225281 18.37664795 C4.52069534 17.27159715 4.52913788 16.16654636 4.53783625 15.02800918 C4.52700536 14.02031045 4.51617447 13.01261173 4.50501537 11.97437668 C4.50403856 11.10405768 4.50306176 10.23373868 4.50205535 9.33704638 C3.83198406 6.2178929 2.41097253 5.01728733 0 3 C-2.83129669 1.58435166 -4.85081562 1.75775505 -8 2 C-11.32880281 3.30541287 -13.43006165 4.22488384 -15.5625 7.125 C-17 9 -17 9 -19.6875 9.75 C-20.450625 9.8325 -21.21375 9.915 -22 10 C-16.60103375 2.12650755 -9.58362694 -1.79796099 0 0 Z " fill="#2E7D32" transform="translate(881,146)"/>
<path d="M0 0 C4.28286055 3.56814115 8.27732322 7.22920254 12.13378906 11.25097656 C33.29923184 33.24149345 60.57939729 47.87630931 89.2109375 57.88183594 C91.15027589 58.56093363 93.0768276 59.27638754 95 60 C95 60.33 95 60.66 95 61 C87.54230289 60.55759424 81.43732811 58.01349681 74.625 55.0625 C73.47394775 54.56741943 72.32289551 54.07233887 71.13696289 53.56225586 C51.77543176 45.09352728 33.44955325 34.44506032 18 19.8828125 C16.32203432 18.30316513 14.62161305 16.86029203 12.8125 15.4375 C9.76215328 12.79386618 7.21629634 9.94293406 4.61328125 6.8671875 C3 5 3 5 1.29296875 3.3828125 C0 2 0 2 0 0 Z " fill="#2E7D32" transform="translate(356,628)"/>
<path d="M0 0 C3.86863108 2.38565584 6.54966467 4.64899402 8 9 C8.38971703 13.75454774 8.4608337 16.07833261 6.3125 20.375 C3.93431491 23.07456145 2.42457856 24.04872818 -1 25 C-0.566875 24.61070312 -0.13375 24.22140625 0.3125 23.8203125 C3.75303476 20.36384934 5.47209751 17.83668487 5.6875 12.875 C5.45993222 9.04135814 5.08292989 8.10693591 2.625 4.9375 C-1.57673741 1.83621762 -4.85272608 1.36580555 -10 2 C-13.39229162 3.06807508 -16.54514693 4.52931602 -19.75 6.0625 C-20.62382324 6.46645996 -21.49764648 6.87041992 -22.39794922 7.28662109 C-28.46407444 10.13632052 -34.22852327 13.27880378 -39.8828125 16.8828125 C-40.58148438 17.25148438 -41.28015625 17.62015625 -42 18 C-42.66 17.67 -43.32 17.34 -44 17 C-40.43510807 13.95435131 -36.93913983 11.81512219 -32.7109375 9.80078125 C-31.52242188 9.23166016 -30.33390625 8.66253906 -29.109375 8.07617188 C-28.49642578 7.78669678 -27.88347656 7.49722168 -27.25195312 7.19897461 C-25.37052345 6.31038575 -23.4935497 5.41290499 -21.6171875 4.51367188 C-7.72161407 -2.10938133 -7.72161407 -2.10938133 0 0 Z " fill="#2E7D32" transform="translate(468,369)"/>
<path d="M0 0 C0.33 0.165 0.33 0.165 2 1 C2.25537109 2.99023438 2.25537109 2.99023438 2.2734375 5.59375 C2.2940625 6.5425 2.3146875 7.49125 2.3359375 8.46875 C2.36157541 10.45825166 2.38004182 12.4478613 2.390625 14.4375 C2.61352366 23.65064457 4.88579472 30.40810331 11.375 37.125 C12.15488281 37.95 12.93476562 38.775 13.73828125 39.625 C14.48464844 40.40875 15.23101563 41.1925 16 42 C18.02690407 44.31174394 20.01170377 46.65483009 22 49 C12.89034413 44.63982283 5.6163064 36.36890683 1.5 27.1875 C-1.33690666 18.60212457 -0.32308454 8.92334647 0 0 Z " fill="#2E7D32" transform="translate(785,527)"/>
<path d="M0 0 C0.66 0.33 1.32 0.66 2 1 C-7.15699417 9.4869702 -17.98537868 15.99590677 -28.8125 22.125 C-29.50013428 22.51534424 -30.18776855 22.90568848 -30.89624023 23.30786133 C-35.744291 26 -35.744291 26 -38 26 C-38 25.34 -38 24.68 -38 24 C-35.52207527 22.60463397 -33.046842 21.32083307 -30.5 20.0625 C-20.44151772 14.92994747 -10.81751751 8.9095348 -2.171875 1.61328125 C-1.45515625 1.08089844 -0.7384375 0.54851563 0 0 Z " fill="#2E7D32" transform="translate(634,651)"/>
<path d="M0 0 C3.84953724 3.68307077 7.09418796 7.5748547 10.3125 11.8125 C14.05740074 16.67080096 17.91130984 21.14949963 22.35546875 25.39453125 C24.44926203 27.43859072 26.20551646 29.69280687 28 32 C29.31494512 33.35147138 30.64264858 34.69112542 32 36 C29 36 29 36 26.8359375 34.19921875 C20.83553428 28.07499769 15.29070934 21.74498527 10 15 C9.77497803 14.71608398 9.77497803 14.71608398 8.63623047 13.27929688 C7.23014834 11.50370158 5.83235053 9.72192792 4.4375 7.9375 C4.21642578 7.65724976 4.21642578 7.65724976 3.09765625 6.23901367 C0 2.23191416 0 2.23191416 0 0 Z " fill="#2E7D32" transform="translate(322,628)"/>
<path d="M0 0 C3.49642065 1.92659913 4.68231206 2.92474851 5.8125 6.75 C5.874375 7.4925 5.93625 8.235 6 9 C5.4225 8.21625 4.845 7.4325 4.25 6.625 C1.29024116 3.17194802 -0.37930497 2.1761625 -4.875 1.6875 C-8.57709791 2.05770979 -10.84788853 3.0386862 -14 5 C-14.515625 5.70125 -15.03125 6.4025 -15.5625 7.125 C-17 9 -17 9 -19.6875 9.75 C-20.450625 9.8325 -21.21375 9.915 -22 10 C-16.5929569 2.11472881 -9.59102177 -1.77977724 0 0 Z " fill="#2E7D32" transform="translate(881,146)"/>
<path d="M0 0 C0.33 0 0.66 0 1 0 C1.1502657 1.88045129 1.228499 3.76663588 1.28125 5.65234375 C1.31863281 6.82087891 1.35601562 7.98941406 1.39453125 9.19335938 C1.42933594 10.42892578 1.46414063 11.66449219 1.5 12.9375 C1.56855001 15.36340857 1.64123648 17.78920504 1.71875 20.21484375 C1.74904297 21.29886475 1.77933594 22.38288574 1.81054688 23.49975586 C2 26 2 26 3 27 C4.70602986 27.14527369 6.41755708 27.22715439 8.12890625 27.28125 C8.64614258 27.29994141 8.64614258 27.29994141 11.26367188 27.39453125 C13.46679289 27.46496851 15.66991791 27.53528057 17.87304688 27.60546875 C18.38963867 27.62416016 18.38963867 27.62416016 21.00390625 27.71875 C21.96111572 27.74904297 22.9183252 27.77933594 23.90454102 27.81054688 C24.25029175 27.84180664 24.25029175 27.84180664 26 28 C26 28.33 26 28.66 26 29 C21.85418113 29.02886751 17.70838784 29.04675327 13.5625 29.0625 C12.97049805 29.06668945 12.97049805 29.06668945 9.97460938 29.08789062 C8.84990234 29.09111328 7.72519531 29.09433594 6.56640625 29.09765625 C6.04534302 29.10027466 6.04534302 29.10027466 3.40844727 29.11352539 C1 29 1 29 0 28 C-0.08767112 25.92737924 -0.10695873 23.85179706 -0.09765625 21.77734375 C-0.09443359 20.51728516 -0.09121094 19.25722656 -0.08789062 17.95898438 C-0.07953403 16.61848891 -0.07106907 15.27799412 -0.0625 13.9375 C-0.0574866 12.59310058 -0.05292342 11.2486994 -0.04882812 9.90429688 C-0.03699488 6.60282059 -0.02050971 3.30143197 0 0 Z " fill="#2E7D32" transform="translate(258,288)"/>
<path d="M0 0 C-20.05375552 10.4261782 -20.05375552 10.4261782 -30 11 C-28.53734016 8.07468033 -26.27408804 7.89590522 -23.32275391 6.89282227 C-22.55624512 6.63944092 -21.78973633 6.38605957 -21 6.125 C-16.09697097 4.46459336 -11.30518666 2.79375178 -6.625 0.5625 C-3 -1 -3 -1 0 0 Z " fill="#2E7D32" transform="translate(595,678)"/>
<path d="M0 0 C1.70815634 2.22060324 3.29368469 4.45571762 4.8125 6.8125 C10.44206201 15.01557606 16.41441016 20.70495349 26 24 C24.328125 24.6796875 24.328125 24.6796875 22 25 C12.97406434 20.99158758 5.98371446 14.03501815 1 5.625 C0 3 0 3 0 0 Z " fill="#2E7D32" transform="translate(806,848)"/>
<path d="M0 0 C8.09709998 3.60292505 17.42936299 11.32507369 22 19 C22.17578125 21.734375 22.17578125 21.734375 22 24 C21.73058594 23.41605469 21.46117187 22.83210938 21.18359375 22.23046875 C17.33796714 14.98342982 10.71034613 9.93289043 4.35546875 4.98046875 C2 3 2 3 0 0 Z " fill="#2E7D32" transform="translate(698,304)"/>
<path d="M0 0 C0.33 0.66 0.66 1.32 1 2 C-0.25779187 4.72521571 -1.60200369 7.3461765 -3 10 C-4.21269529 12.41461107 -5.42115362 14.83099761 -6.625 17.25 C-7.22109886 18.44283595 -7.81744259 19.63554957 -8.4140625 20.828125 C-8.93742188 21.87484375 -9.46078125 22.9215625 -10 24 C-10.66666667 25.33333333 -11.33333333 26.66666667 -12 28 C-13.12978054 24.61065839 -12.97680919 24.31022768 -11.5234375 21.26953125 C-11.18441406 20.5520874 -10.84539063 19.83464355 -10.49609375 19.09545898 C-10.12613281 18.34208252 -9.75617187 17.58870605 -9.375 16.8125 C-9.00761719 16.0481665 -8.64023437 15.28383301 -8.26171875 14.49633789 C-5.80214979 9.44720959 -3.1644106 4.64772807 0 0 Z " fill="#2E7D32" transform="translate(793,235)"/>
<path d="M0 0 C0.33 0 0.66 0 1 0 C1.10169696 5.91198335 0.73665327 11.62865093 0.0625 17.5 C-0.02451172 18.32242187 -0.11152344 19.14484375 -0.20117188 19.9921875 C-0.42628195 21.99983583 -0.70742146 24.00106924 -1 26 C-1.33 26 -1.66 26 -2 26 C-2.0543251 22.97892098 -2.09382927 19.95883472 -2.125 16.9375 C-2.14175781 16.08994141 -2.15851563 15.24238281 -2.17578125 14.36914062 C-2.21583577 9.18208058 -1.79052584 4.88747239 0 0 Z " fill="#2E7D32" transform="translate(365,470)"/>
<path d="M0 0 C0 3 0 3 -2.484375 5.8125 C-3.56528615 6.88276178 -4.65420672 7.94498043 -5.75 9 C-6.01941406 9.26683594 -6.01941406 9.26683594 -7.3828125 10.6171875 C-13.10163996 16.22442809 -13.10163996 16.22442809 -16 18 C-16.66 17.67 -17.32 17.34 -18 17 C-17.49025635 16.52054932 -16.9805127 16.04109863 -16.45532227 15.54711914 C-14.15756291 13.38574089 -11.86002856 11.22412359 -9.5625 9.0625 C-8.76005859 8.30775391 -7.95761719 7.55300781 -7.13085938 6.77539062 C-6.36708984 6.05673828 -5.60332031 5.33808594 -4.81640625 4.59765625 C-4.10943604 3.93258057 -3.40246582 3.26750488 -2.67407227 2.58227539 C-1.77353853 1.73112195 -0.87619153 0.87619153 0 0 Z " fill="#2E7D32" transform="translate(655,632)"/>
<path d="M0 0 C2.61289776 3.00166801 3.36930244 4.79627311 3.29296875 8.765625 C3.28330078 9.65507812 3.27363281 10.54453125 3.26367188 11.4609375 C3.23853516 12.38132812 3.21339844 13.30171875 3.1875 14.25 C3.18073242 14.71792969 3.18073242 14.71792969 3.14648438 17.0859375 C3.11119954 19.39121327 3.06190281 21.6953106 3 24 C2.67 24 2.34 24 2 24 C-0.17439855 16.08011038 -0.2332614 8.15119014 0 0 Z " fill="#2E7D32" transform="translate(285,496)"/>
<path d="M0 0 C-3.06032459 1.62912132 -6.12363037 3.252557 -9.1875 4.875 C-9.6196582 5.10509766 -9.6196582 5.10509766 -11.80664062 6.26953125 C-12.64775391 6.71425781 -13.48886719 7.15898437 -14.35546875 7.6171875 C-14.74037476 7.82142334 -14.74037476 7.82142334 -16.68823242 8.85498047 C-19.08229997 10.04076321 -21.50776212 11.04011256 -24 12 C-20.09860873 7.63962153 -16.11178 5.17184929 -10.875 2.625 C-10.15957031 2.25761719 -9.44414062 1.89023437 -8.70703125 1.51171875 C-3.38028665 -1.12676222 -3.38028665 -1.12676222 0 0 Z " fill="#2E7D32" transform="translate(448,375)"/>
<path d="M0 0 C0.33 0 0.66 0 1 0 C1.85977575 9.66770068 1.85977575 9.66770068 -1.1875 13.5625 C-3.99042874 15.99170491 -5.35373413 16.79164195 -9 17 C-8.608125 16.7009375 -8.608125 16.7009375 -6.625 15.1875 C-2.15709647 11.46424706 -1.69821368 8.58570948 -1 3 C-0.67 2.01 -0.34 1.02 0 0 Z " fill="#2E7D32" transform="translate(388,494)"/>
<path d="M0 0 C1.76953125 1.52734375 1.76953125 1.52734375 3 3 C2.13117188 2.94199219 1.26234375 2.88398438 0.3671875 2.82421875 C-10.21745837 2.40983105 -10.21745837 2.40983105 -13.8125 5.5 C-14.534375 6.325 -15.25625 7.15 -16 8 C-15.77069943 4.78979202 -14.93806165 3.94425548 -12.5 1.75 C-8.29322128 -0.35338936 -4.63929239 -0.98087896 0 0 Z " fill="#2E7D32" transform="translate(252,147)"/>
<path d="M0 0 C5.29012124 4.40843437 10.18808428 9.07559794 15 14 C10.39219149 14 8.20282173 11.09769629 5 8 C0 2.6882793 0 2.6882793 0 0 Z " fill="#2E7D32" transform="translate(792,561)"/>
<path d="M0 0 C2.12472576 -0.05386629 4.24983652 -0.09273071 6.375 -0.125 C7.55835938 -0.14820313 8.74171875 -0.17140625 9.9609375 -0.1953125 C13 0 13 0 15 2 C14 3 14 3 10.875 3.1875 C6.80607001 2.99061629 3.82390014 2.32665923 0 1 C0 0.67 0 0.34 0 0 Z " fill="#2E7D32" transform="translate(445,785)"/>
<path d="M0 0 C0 3.9967284 -1.51424049 5.4409151 -3.875 8.625 C-4.59429687 9.60726563 -5.31359375 10.58953125 -6.0546875 11.6015625 C-8 14 -8 14 -10 15 C-8.59601721 10.89889238 -6.62912962 8.01910841 -3.875 4.6875 C-3.15054687 3.80449219 -2.42609375 2.92148437 -1.6796875 2.01171875 C-1.12539063 1.34785156 -0.57109375 0.68398438 0 0 Z " fill="#2E7D32" transform="translate(332,382)"/>
<path d="M0 0 C0.66 0.33 1.32 0.66 2 1 C0.57499765 2.5325497 -0.86541081 4.05078801 -2.3125 5.5625 C-2.71275391 5.98595703 -2.71275391 5.98595703 -4.73828125 8.12890625 C-5.48464844 8.74636719 -6.23101563 9.36382813 -7 10 C-7.99 9.67 -8.98 9.34 -10 9 C-8.75 6.5625 -8.75 6.5625 -7 4 C-5 3.375 -5 3.375 -3 3 C-2.46375 2.46375 -1.9275 1.9275 -1.375 1.375 C-0.92125 0.92125 -0.4675 0.4675 0 0 Z " fill="#2E7D32" transform="translate(695,691)"/>
<path d="M0 0 C0.33 0.66 0.66 1.32 1 2 C-0.80078125 4.56640625 -0.80078125 4.56640625 -3.3125 7.5625 C-4.13363281 8.55378906 -4.95476563 9.54507813 -5.80078125 10.56640625 C-8 13 -8 13 -10 14 C-8.51872621 10.74715253 -6.65319465 8.11102873 -4.4375 5.3125 C-3.81746094 4.52488281 -3.19742188 3.73726562 -2.55859375 2.92578125 C-1 1 -1 1 0 0 Z " fill="#2E7D32" transform="translate(824,190)"/>
<path d="M0 0 C-4.42778844 2.74522883 -7.71862571 4.48474397 -13 5 C-13 4.34 -13 3.68 -13 3 C-10.91796875 1.89453125 -10.91796875 1.89453125 -8.1875 0.8125 C-7.29417969 0.44769531 -6.40085937 0.08289063 -5.48046875 -0.29296875 C-3 -1 -3 -1 0 0 Z " fill="#2E7D32" transform="translate(402,257)"/>
<path d="M0 0 C1.32 0.33 2.64 0.66 4 1 C4.49609375 2.8125 4.49609375 2.8125 4.4375 5 C4.43621094 5.721875 4.43492187 6.44375 4.43359375 7.1875 C4.29050781 7.785625 4.14742187 8.38375 4 9 C3.01 9.33 2.02 9.66 1 10 C0.67 6.7 0.34 3.4 0 0 Z " fill="#2E7D32" transform="translate(717,323)"/>
<path d="M0 0 C4.2742558 1.5830577 6.26531794 4.50568404 9 8 C5.56247993 6.4722133 2.81046312 4.49818944 0 2 C0 1.34 0 0.68 0 0 Z " fill="#2E7D32" transform="translate(367,640)"/>
<path d="M0 0 C-1.485 0.99 -1.485 0.99 -9 6 C-8 2 -8 2 -5.625 0.1875 C-3 -1 -3 -1 0 0 Z " fill="#2E7D32" transform="translate(370,272)"/>
<path d="M0 0 C-0.33 0.66 -0.66 1.32 -1 2 C-3.64860427 2.59355614 -6.29197322 2.74209269 -9 3 C-7.14340032 -0.71319936 -3.69365381 -0.09982848 0 0 Z " fill="#2E7D32" transform="translate(587,753)"/>
<path d="M0 0 C-1.38033661 3.33581347 -2.87879346 5.14678362 -6 7 C-6.66 6.67 -7.32 6.34 -8 6 C-7.0479279 4.99403703 -6.08812654 3.99538437 -5.125 3 C-4.59132813 2.443125 -4.05765625 1.88625 -3.5078125 1.3125 C-2 0 -2 0 0 0 Z " fill="#2E7D32" transform="translate(645,643)"/>
</svg>