<?xml version="1.0" standalone="no"?>
<!DOCTYPE svg PUBLIC "-//W3C//DTD SVG 20010904//EN"
 "http://www.w3.org/TR/2001/REC-SVG-20010904/DTD/svg10.dtd">
<svg version="1.0" xmlns="http://www.w3.org/2000/svg"
 width="2048.000000pt" height="614.000000pt" viewBox="0 0 2048.000000 614.000000"
 preserveAspectRatio="xMidYMid meet">

<g transform="translate(0.000000,614.000000) scale(0.100000,-0.100000)"
fill="#000000" stroke="none">
<path d="M10870 4680 c-114 -18 -266 -53 -305 -69 -11 -5 -54 -21 -95 -36 -93
-34 -160 -64 -275 -123 -49 -26 -125 -63 -167 -84 -42 -21 -79 -42 -83 -47 -3
-5 17 2 45 15 27 13 52 24 54 24 3 0 60 26 128 59 376 179 659 252 986 252
217 1 362 -22 587 -91 227 -70 348 -123 469 -204 38 -25 73 -46 78 -46 6 0 24
-9 41 -21 l32 -21 -30 27 c-29 25 -138 97 -237 156 -141 84 -397 172 -598 205
-157 26 -480 28 -630 4z"/>
<path d="M8987 4394 c-4 -24 -14 -44 -23 -48 -8 -3 -12 -10 -9 -16 10 -17 -5
-51 -28 -61 l-22 -10 22 5 c17 3 20 0 15 -13 -3 -9 -12 -21 -19 -26 -18 -14
-6 -45 17 -45 10 0 20 8 22 18 3 14 6 13 17 -7 12 -21 11 -23 -2 -18 -9 3 -21
-1 -27 -9 -7 -8 -19 -14 -26 -14 -8 0 -14 -6 -14 -14 0 -17 -53 -65 -103 -91
-36 -19 -52 -43 -21 -31 9 4 23 1 30 -5 11 -9 19 -8 34 6 11 10 23 15 27 12 3
-4 3 -7 -2 -7 -4 0 -2 -7 5 -15 7 -9 11 -17 9 -18 -2 -2 -17 -13 -33 -25 -16
-12 -43 -23 -60 -23 l-31 -2 38 -10 c20 -6 37 -14 37 -18 0 -5 -19 -13 -42
-19 -24 -6 -56 -17 -73 -25 -30 -14 -30 -14 26 -14 30 -1 64 -7 74 -15 11 -8
25 -12 32 -9 26 10 12 -12 -20 -33 -29 -19 -43 -21 -100 -17 -65 6 -65 6 -56
31 10 26 -1 41 -28 42 -19 0 -25 18 -18 52 4 17 10 26 14 20 4 -7 19 -8 41 -2
21 5 27 8 14 9 -12 1 -28 8 -35 18 -8 9 -33 25 -56 35 -29 13 -43 25 -43 38 0
10 -3 25 -6 33 -3 10 5 18 25 25 41 15 40 33 -1 25 -23 -4 -29 -3 -24 6 4 6 1
23 -8 36 -15 23 -15 26 4 42 25 21 25 29 2 35 -11 3 -23 22 -30 47 -15 49 -35
53 -52 11 -7 -17 -21 -35 -31 -41 -22 -11 -24 -31 -8 -58 10 -15 8 -22 -12
-42 -13 -13 -41 -32 -63 -42 -45 -20 -41 -27 27 -52 46 -17 64 -45 30 -45 -10
0 -29 -9 -43 -20 -14 -11 -35 -20 -47 -20 -34 0 -35 -15 -2 -34 28 -16 29 -19
15 -35 -12 -13 -13 -20 -4 -29 9 -9 7 -13 -8 -18 -26 -10 -94 -57 -94 -66 0
-5 18 -8 40 -8 22 0 40 -4 40 -8 0 -10 -67 -32 -94 -32 -10 0 -14 -4 -11 -10
8 -13 61 -13 86 0 20 11 28 -3 8 -16 -21 -13 19 -26 42 -13 18 9 31 6 75 -17
41 -22 51 -31 42 -41 -6 -7 -25 -13 -42 -14 -30 0 -30 -1 -7 -10 16 -6 28 -6
35 1 15 15 35 12 65 -9 21 -15 50 -21 126 -25 55 -3 84 -2 65 2 -44 9 -24 19
56 28 74 9 78 24 7 24 -56 0 -113 16 -113 33 0 4 -11 7 -25 7 -31 0 -34 29 -5
37 11 3 20 9 20 14 0 5 18 9 40 9 23 0 40 -5 40 -11 0 -6 6 -9 14 -6 8 3 22
-1 33 -8 10 -8 28 -15 40 -15 12 0 25 -4 28 -10 10 -16 45 -12 45 6 0 13 5 14
23 8 12 -4 51 -9 87 -10 90 -2 90 -2 90 -21 1 -17 1 -17 14 0 11 13 29 17 92
18 43 0 129 6 189 14 95 11 101 13 45 13 -96 -1 -240 64 -279 125 -9 14 -8 17
12 17 13 0 27 3 31 7 4 5 38 18 74 30 37 12 61 22 55 22 -7 1 -13 6 -13 12 0
6 9 8 21 4 26 -9 154 33 176 57 16 18 16 18 -3 12 -10 -3 -38 -15 -61 -25 -58
-26 -170 -35 -228 -19 -44 12 -61 30 -29 30 8 0 12 5 9 10 -3 6 -23 10 -44 10
-25 0 -44 7 -56 20 l-19 21 82 -4 c45 -3 82 -1 82 4 0 5 -6 9 -13 9 -7 0 -20
9 -30 20 -9 11 -24 20 -33 20 -12 0 -15 6 -10 24 8 34 -13 46 -78 43 -41 -1
-59 2 -66 13 -14 23 -4 27 55 24 43 -2 55 0 55 11 0 16 -4 17 -62 18 -21 0
-35 3 -32 8 2 4 1 16 -4 26 -19 38 -28 79 -22 103 4 15 9 20 13 13 4 -6 4 -19
0 -29 -5 -13 -3 -16 9 -11 11 4 18 -2 22 -18 3 -13 14 -31 23 -41 16 -16 16
-16 -4 -10 -12 4 -24 2 -28 -4 -3 -5 1 -10 9 -10 9 0 16 -4 16 -10 0 -5 7 -10
15 -10 24 0 17 37 -22 117 -29 58 -39 71 -44 57 -6 -16 -7 -15 -11 6 -3 20 -5
17 -11 -16z m-452 -185 c11 -17 0 -20 -21 -4 -17 13 -17 14 -2 15 9 0 20 -5
23 -11z m558 -236 c-7 -2 -21 -2 -30 0 -10 3 -4 5 12 5 17 0 24 -2 18 -5z
m-446 -29 c-3 -3 -12 -4 -19 -1 -8 3 -5 6 6 6 11 1 17 -2 13 -5z m590 -50 c-3
-3 -12 -4 -19 -1 -8 3 -5 6 6 6 11 1 17 -2 13 -5z m56 -185 c29 0 30 -1 11
-11 -16 -7 -29 -6 -50 7 -16 9 -21 14 -11 11 10 -3 33 -6 50 -7z m-593 -98 c0
-6 -15 -13 -34 -17 -35 -6 -60 1 -52 15 7 11 86 13 86 2z"/>
<path d="M9900 4300 c-8 -5 -10 -10 -5 -10 6 0 17 5 25 10 8 5 11 10 5 10 -5
0 -17 -5 -25 -10z"/>
<path d="M10353 4223 c9 -2 25 -2 35 0 9 3 1 5 -18 5 -19 0 -27 -2 -17 -5z"/>
<path d="M10288 4213 c7 -3 16 -2 19 1 4 3 -2 6 -13 5 -11 0 -14 -3 -6 -6z"/>
<path d="M11108 4213 c6 -2 18 -2 25 0 6 3 1 5 -13 5 -14 0 -19 -2 -12 -5z"/>
<path d="M10108 4173 c7 -3 16 -2 19 1 4 3 -2 6 -13 5 -11 0 -14 -3 -6 -6z"/>
<path d="M9840 4140 c-18 -12 -2 -12 25 0 13 6 15 9 5 9 -8 0 -22 -4 -30 -9z"/>
<path d="M9858 4093 c7 -3 16 -2 19 1 4 3 -2 6 -13 5 -11 0 -14 -3 -6 -6z"/>
<path d="M8640 4060 c0 -5 7 -10 16 -10 8 0 12 5 9 10 -3 6 -10 10 -16 10 -5
0 -9 -4 -9 -10z"/>
<path d="M9602 4039 c-35 -17 -61 -33 -58 -36 6 -6 88 30 121 53 32 23 4 15
-63 -17z"/>
<path d="M9723 4057 c-24 -5 -43 -13 -43 -17 0 -8 88 15 98 25 7 6 -3 5 -55
-8z"/>
<path d="M8348 4023 c7 -3 16 -2 19 1 4 3 -2 6 -13 5 -11 0 -14 -3 -6 -6z"/>
<path d="M8674 4021 c3 -4 17 -7 32 -5 41 4 41 14 0 14 -20 0 -35 -4 -32 -9z"/>
<path d="M8265 3990 c-3 -5 1 -10 10 -10 9 0 13 5 10 10 -3 6 -8 10 -10 10 -2
0 -7 -4 -10 -10z"/>
<path d="M8660 3880 c0 -5 5 -10 10 -10 6 0 10 5 10 10 0 6 -4 10 -10 10 -5 0
-10 -4 -10 -10z"/>
<path d="M8960 3630 l-25 -21 30 7 c37 8 45 13 45 25 0 15 -23 10 -50 -11z"/>
<path d="M8768 3583 c7 -3 16 -2 19 1 4 3 -2 6 -13 5 -11 0 -14 -3 -6 -6z"/>
<path d="M10068 3583 c7 -3 16 -2 19 1 4 3 -2 6 -13 5 -11 0 -14 -3 -6 -6z"/>
<path d="M8842 3570 c23 -14 112 -18 118 -5 3 6 -22 11 -65 12 -51 2 -65 0
-53 -7z"/>
<path d="M9025 3570 c-4 -6 5 -10 19 -10 14 0 26 5 26 10 0 6 -9 10 -19 10
-11 0 -23 -4 -26 -10z"/>
<path d="M10638 3543 c7 -3 16 -2 19 1 4 3 -2 6 -13 5 -11 0 -14 -3 -6 -6z"/>
<path d="M8828 3533 c7 -3 16 -2 19 1 4 3 -2 6 -13 5 -11 0 -14 -3 -6 -6z"/>
<path d="M8912 3523 c-6 -3 -10 -9 -6 -14 7 -12 41 -12 48 0 7 10 -23 20 -42
14z"/>
<path d="M8333 3423 c9 -2 25 -2 35 0 9 3 1 5 -18 5 -19 0 -27 -2 -17 -5z"/>
<path d="M8688 3413 c12 -2 32 -2 45 0 12 2 2 4 -23 4 -25 0 -35 -2 -22 -4z"/>
<path d="M10933 3383 c9 -2 25 -2 35 0 9 3 1 5 -18 5 -19 0 -27 -2 -17 -5z"/>
<path d="M11103 3373 c9 -2 23 -2 30 0 6 3 -1 5 -18 5 -16 0 -22 -2 -12 -5z"/>
<path d="M8678 3333 c7 -3 16 -2 19 1 4 3 -2 6 -13 5 -11 0 -14 -3 -6 -6z"/>
<path d="M12068 3333 c6 -2 18 -2 25 0 6 3 1 5 -13 5 -14 0 -19 -2 -12 -5z"/>
<path d="M9695 3150 c11 -5 31 -9 45 -9 23 0 23 1 5 9 -11 5 -31 9 -45 9 -23
0 -23 -1 -5 -9z"/>
<path d="M9950 3150 c-8 -5 -10 -10 -5 -10 6 0 9 -34 6 -90 -3 -98 1 -122 21
-115 10 4 12 33 11 112 -1 59 -6 109 -10 110 -4 2 -15 -2 -23 -7z"/>
<path d="M10160 3151 l-55 -7 50 -5 50 -4 0 -99 c0 -69 4 -100 12 -103 9 -3
13 23 15 99 l3 103 50 6 c48 6 49 6 10 8 -22 1 -49 3 -60 5 -11 2 -45 0 -75
-3z"/>
<path d="M10752 3150 c-61 -14 -100 -72 -88 -133 22 -118 236 -122 261 -6 5
22 0 40 -21 74 -39 60 -85 80 -152 65z m115 -49 c50 -75 12 -161 -72 -161 -88
0 -124 98 -64 174 18 23 27 27 67 24 40 -3 49 -8 69 -37z"/>
<path d="M9627 3132 c-25 -27 -21 -48 12 -71 16 -12 32 -21 36 -21 21 0 74
-34 78 -50 7 -26 -17 -43 -72 -51 l-46 -6 41 -2 c49 -1 89 16 105 46 16 30 -6
55 -64 72 -50 15 -77 37 -77 62 0 10 8 23 18 28 14 9 15 10 1 11 -9 0 -23 -8
-32 -18z"/>
<path d="M10468 3039 c2 -79 7 -109 15 -106 15 4 20 174 6 182 -15 10 -10 23
9 28 11 3 9 5 -8 6 l-25 1 3 -111z"/>
<path d="M6215 3020 c-172 -27 -389 -98 -508 -167 -295 -171 -482 -382 -509
-574 -12 -91 1 -136 52 -183 38 -34 44 -36 108 -36 37 0 98 8 136 18 88 23
101 44 17 27 -71 -15 -135 -6 -165 24 -18 19 -21 32 -20 99 3 141 66 254 228
409 238 227 551 354 869 353 168 -1 276 -38 349 -119 99 -110 112 -225 41
-386 -68 -158 -255 -344 -430 -429 -134 -65 -348 -125 -412 -114 -20 3 -20 4
4 58 13 30 44 105 70 165 25 61 70 160 100 220 78 158 135 284 135 298 1 7 9
30 20 52 11 22 19 47 20 56 1 47 -84 86 -122 57 -10 -7 -34 -53 -54 -103 -43
-108 -67 -162 -104 -235 -15 -30 -60 -129 -99 -220 -40 -91 -78 -178 -86 -195
-7 -16 -26 -58 -40 -92 -35 -80 -53 -95 -120 -101 -38 -3 -55 -9 -55 -18 0
-10 13 -14 40 -14 25 0 43 -5 46 -14 3 -7 -58 -141 -135 -297 -202 -411 -219
-478 -126 -509 62 -20 125 12 125 65 0 34 96 283 165 430 31 66 64 137 74 157
15 35 41 52 41 27 0 -12 74 -112 133 -179 324 -369 631 -560 1002 -624 131
-23 358 -21 471 3 115 26 272 86 351 136 100 64 73 83 -47 35 -188 -76 -307
-95 -545 -87 -215 8 -375 42 -514 113 -27 13 -51 24 -54 24 -12 0 -155 85
-200 119 -181 136 -342 290 -436 416 -71 96 -96 141 -81 150 4 3 48 14 97 24
137 30 192 47 289 90 176 78 270 132 380 217 276 214 368 461 244 653 -53 83
-126 133 -260 178 -67 23 -94 26 -250 29 -96 1 -202 -1 -235 -6z m72 -222 c-3
-8 -6 -5 -6 6 -1 11 2 17 5 13 3 -3 4 -12 1 -19z m123 -788 c-8 -5 -19 -10
-25 -10 -5 0 -3 5 5 10 8 5 20 10 25 10 6 0 3 -5 -5 -10z m-643 -392 c-3 -8
-6 -5 -6 6 -1 11 2 17 5 13 3 -3 4 -12 1 -19z m294 -85 c13 -16 12 -17 -3 -4
-10 7 -18 15 -18 17 0 8 8 3 21 -13z m-454 -285 c-3 -8 -6 -5 -6 6 -1 11 2 17
5 13 3 -3 4 -12 1 -19z m1108 -148 c3 -5 -4 -6 -15 -3 -11 3 -22 9 -25 13 -3
5 4 6 15 3 11 -3 22 -9 25 -13z m952 -76 c-3 -3 -12 -4 -19 -1 -8 3 -5 6 6 6
11 1 17 -2 13 -5z m-464 -91 c-7 -2 -21 -2 -30 0 -10 3 -4 5 12 5 17 0 24 -2
18 -5z"/>
<path d="M8780 3021 c-41 -3 74 -5 255 -3 182 2 335 5 340 7 17 6 -514 2 -595
-4z"/>
<path d="M11398 3023 c100 -2 264 -2 365 0 100 1 18 2 -183 2 -201 0 -283 -1
-182 -2z"/>
<path d="M8638 3013 c12 -2 30 -2 40 0 9 3 -1 5 -23 4 -22 0 -30 -2 -17 -4z"/>
<path d="M13365 2944 c-331 -48 -530 -133 -749 -319 -88 -76 -155 -161 -199
-255 -27 -57 -31 -76 -32 -155 0 -103 17 -144 71 -170 37 -17 110 -19 174 -4
25 6 55 12 68 14 57 6 27 15 -55 15 -99 0 -115 8 -133 68 -10 37 8 133 39 206
97 223 376 447 656 526 93 26 247 38 359 28 191 -18 303 -129 324 -321 20
-183 -60 -365 -243 -551 -147 -151 -284 -240 -459 -300 -97 -33 -195 -56 -200
-48 -2 4 11 39 29 77 19 39 67 144 109 235 98 218 174 377 252 532 35 70 64
138 64 152 0 29 -42 66 -74 66 -12 0 -34 -12 -48 -27 -32 -34 -243 -449 -340
-668 -39 -88 -88 -196 -109 -240 -22 -44 -39 -86 -39 -92 0 -19 -40 -41 -88
-49 -49 -8 -51 -24 -4 -36 17 -5 34 -13 37 -18 3 -5 -6 -33 -20 -62 -25 -51
-58 -133 -105 -262 -11 -33 -24 -88 -27 -122 -5 -57 -4 -64 20 -88 27 -27 65
-33 97 -16 11 6 27 38 40 82 45 150 143 405 174 454 11 16 29 25 63 29 187 27
378 99 553 208 75 48 63 39 160 116 163 128 285 310 324 480 14 62 14 78 1
146 -33 175 -140 283 -340 345 -69 21 -273 35 -350 24z m-471 -189 c-4 -8 -11
-15 -16 -15 -6 0 -5 6 2 15 7 8 14 15 16 15 2 0 1 -7 -2 -15z m510 -54 c4 -5
-3 -7 -14 -4 -23 6 -26 13 -6 13 8 0 17 -4 20 -9z m633 -238 c-3 -10 -5 -2 -5
17 0 19 2 27 5 18 2 -10 2 -26 0 -35z m-766 -95 c-24 -39 -28 -30 -5 13 8 17
18 28 21 25 3 -3 -4 -20 -16 -38z m649 -182 c0 -2 -8 -10 -17 -17 -16 -13 -17
-12 -4 4 13 16 21 21 21 13z m-787 -116 c-3 -12 -8 -19 -11 -16 -5 6 5 36 12
36 2 0 2 -9 -1 -20z m307 -279 c0 -15 -31 -22 -48 -11 -14 9 -13 10 5 5 12 -3
24 -1 28 5 8 12 15 13 15 1z m-214 -88 c-8 -8 -99 -33 -104 -28 -4 4 79 33 97
34 8 1 11 -2 7 -6z m-117 -37 c-2 -2 -20 -6 -39 -10 -25 -4 -31 -3 -20 4 14 9
69 15 59 6z"/>
<path d="M10073 2657 c-13 -7 -36 -31 -53 -54 -35 -48 -135 -222 -145 -252 -9
-28 -44 -35 -102 -22 -96 22 -292 42 -456 48 -139 5 -180 3 -242 -12 -42 -9
-78 -21 -81 -26 -3 -5 73 -9 173 -9 98 0 205 -5 238 -10 33 -5 138 -19 234
-30 96 -11 176 -21 177 -23 2 -2 -27 -66 -65 -143 -37 -76 -94 -200 -127 -274
-52 -119 -67 -143 -127 -207 -105 -110 -197 -143 -210 -76 -3 16 11 96 34 191
46 184 45 212 -4 243 -44 26 -71 24 -144 -10 -84 -40 -179 -142 -320 -340 -2
-2 -6 -1 -10 2 -9 9 24 79 71 152 59 91 104 233 78 249 -4 2 -23 7 -43 11 -32
6 -41 3 -67 -22 -17 -15 -56 -77 -88 -138 -87 -168 -135 -227 -257 -319 -56
-42 -90 -46 -111 -13 -14 20 -12 33 13 137 16 63 32 122 36 131 6 16 -45 69
-66 69 -22 0 -50 -22 -65 -53 -26 -50 -242 -307 -258 -307 -3 0 -22 -11 -42
-25 -51 -35 -64 -32 -64 12 0 62 93 232 170 312 119 123 218 159 290 106 19
-14 38 -32 43 -40 4 -9 12 -13 18 -10 14 9 11 43 -7 71 -28 42 -71 57 -159 58
-69 1 -89 -3 -145 -30 -80 -38 -161 -111 -240 -216 -111 -147 -291 -280 -404
-298 -99 -16 -146 25 -146 128 0 171 174 388 294 365 33 -7 33 -23 1 -91 -14
-30 -25 -58 -25 -63 0 -15 33 -10 63 9 64 38 66 155 3 193 -114 70 -343 -61
-439 -252 -47 -91 -160 -190 -303 -264 -77 -39 -144 -46 -194 -20 -48 25 -59
64 -44 155 6 35 8 36 92 64 119 39 178 75 252 152 59 61 62 67 57 102 -9 56
-45 82 -115 82 -102 0 -208 -56 -311 -163 -59 -62 -88 -110 -112 -184 -39
-119 -6 -213 89 -254 55 -24 170 -25 238 -3 69 23 206 116 256 175 24 27 46
49 49 49 4 0 4 -19 2 -43 -7 -55 25 -124 71 -155 48 -33 153 -48 228 -32 85
19 274 138 285 181 3 11 10 19 15 19 5 0 6 -25 2 -60 -9 -79 6 -115 53 -131
100 -33 209 34 331 203 23 31 46 59 51 63 6 3 8 -20 4 -63 -4 -54 -2 -75 12
-103 25 -48 43 -58 101 -59 60 0 107 27 204 118 35 33 66 59 68 57 2 -2 -8
-28 -22 -58 -19 -39 -26 -70 -26 -113 0 -72 7 -83 53 -91 36 -5 36 -5 84 72
62 100 227 309 308 391 77 76 141 113 161 92 12 -12 10 -25 -11 -88 -39 -114
-65 -216 -65 -256 0 -54 28 -104 66 -120 81 -34 155 -5 267 104 31 31 57 52
57 47 0 -6 -7 -35 -15 -65 -8 -30 -15 -96 -15 -146 0 -81 3 -98 28 -145 32
-62 80 -99 128 -99 33 0 45 12 24 25 -6 4 -20 25 -32 48 -30 59 -30 210 1 318
48 168 230 573 294 652 l22 28 105 -12 c140 -16 503 -6 585 16 117 30 226 104
181 121 -9 3 -37 -5 -63 -19 -99 -51 -202 -68 -425 -68 -192 -1 -368 8 -368
18 0 8 54 98 101 168 67 99 86 142 73 163 -14 21 -71 26 -101 9z m-625 -314
c-10 -2 -28 -2 -40 0 -13 2 -5 4 17 4 22 1 32 -1 23 -4z m119 -9 c-3 -3 -12
-4 -19 -1 -8 3 -5 6 6 6 11 1 17 -2 13 -5z m1148 -34 c-11 -5 -29 -8 -40 -8
-16 0 -15 2 5 8 34 11 60 11 35 0z m-3648 -276 c-3 -3 -12 -4 -19 -1 -8 3 -5
6 6 6 11 1 17 -2 13 -5z m15 -30 c11 -10 -10 -64 -38 -97 -70 -83 -264 -188
-264 -143 0 8 3 16 8 18 4 2 20 22 36 46 72 106 225 210 258 176z m1885 -16
c-3 -8 -6 -5 -6 6 -1 11 2 17 5 13 3 -3 4 -12 1 -19z m320 -260 c-3 -8 -6 -5
-6 6 -1 11 2 17 5 13 3 -3 4 -12 1 -19z m-880 -30 c-3 -8 -6 -5 -6 6 -1 11 2
17 5 13 3 -3 4 -12 1 -19z m-1510 -234 c-3 -3 -12 -4 -19 -1 -8 3 -5 6 6 6 11
1 17 -2 13 -5z"/>
<path d="M11673 2596 c-127 -59 -212 -179 -328 -461 l-41 -100 -63 -8 c-179
-22 -380 -210 -423 -396 -30 -132 78 -176 195 -79 29 23 85 79 126 125 41 45
78 80 82 78 4 -3 0 -31 -8 -63 -20 -74 -13 -255 11 -328 21 -63 78 -121 126
-130 35 -7 35 -7 17 14 -34 38 -48 110 -48 241 1 130 1 138 33 296 22 114 28
123 152 245 172 168 336 420 336 517 0 75 -68 95 -167 49z m115 -64 c7 -75
-128 -286 -306 -477 -66 -70 -87 -78 -59 -23 9 18 38 85 63 148 66 165 161
320 226 366 46 33 72 28 76 -14z m-588 -546 c0 -2 -11 -6 -25 -8 -13 -3 -22
-1 -19 3 5 9 44 13 44 5z m84 -4 c7 -11 -42 -102 -93 -171 -83 -114 -219 -241
-258 -241 -18 0 25 112 68 175 81 122 150 195 201 215 18 6 40 16 48 20 19 11
28 12 34 2z m-404 -448 c0 -14 -3 -14 -15 -4 -8 7 -15 14 -15 16 0 2 7 4 15 4
8 0 15 -7 15 -16z"/>
<path d="M14105 2051 c-56 -9 -161 -61 -221 -109 -68 -54 -147 -161 -184 -249
-59 -141 -26 -243 78 -243 86 0 243 142 332 300 17 30 19 2 4 -53 -21 -73 -12
-120 29 -158 45 -41 102 -38 217 12 63 28 75 37 107 84 19 28 41 58 49 68 8
10 13 24 11 30 -2 6 -32 -19 -67 -56 -35 -37 -78 -77 -96 -88 -48 -29 -95 -41
-111 -28 -21 18 -16 133 9 217 18 62 19 76 8 97 -10 19 -22 25 -45 25 -35 0
-58 -22 -140 -130 -109 -144 -227 -250 -278 -250 -38 0 -2 99 85 236 44 71
186 211 220 218 92 19 121 13 162 -33 28 -31 46 -27 46 12 0 38 -18 58 -70 79
-48 20 -98 27 -145 19z m132 -37 c-3 -3 -12 -4 -19 -1 -8 3 -5 6 6 6 11 1 17
-2 13 -5z"/>
<path d="M10229 2020 c-118 -35 -267 -158 -319 -263 -26 -51 -30 -72 -30 -138
0 -76 1 -79 34 -113 35 -34 99 -56 164 -56 44 0 143 54 209 114 97 89 183 241
183 324 0 46 -34 109 -70 127 -31 16 -126 19 -171 5z m136 -60 c19 -18 21 -27
14 -69 -16 -102 -126 -271 -214 -329 -73 -48 -112 -41 -134 26 -11 32 -11 47
-1 78 39 122 106 213 204 276 67 43 100 47 131 18z"/>
<path d="M14937 2018 c-54 -4 -133 -14 -175 -23 -108 -23 -246 -57 -251 -61
-2 -2 2 -10 9 -19 17 -21 90 -19 182 5 41 11 101 22 134 25 32 3 71 8 87 10
18 3 27 0 27 -9 0 -8 -61 -73 -136 -145 -130 -125 -239 -208 -386 -291 -32
-17 -58 -35 -58 -38 0 -4 12 -12 26 -19 22 -10 34 -8 82 13 188 83 652 446
652 509 0 45 -39 54 -193 43z m-21 -36 c-5 -8 -76 -4 -76 4 0 2 18 4 41 4 22
0 38 -4 35 -8z m-186 -322 c8 -5 11 -10 5 -10 -5 0 -17 5 -25 10 -8 5 -10 10
-5 10 6 0 17 -5 25 -10z m-200 -124 c0 -3 -4 -8 -10 -11 -5 -3 -10 -1 -10 4 0
6 5 11 10 11 6 0 10 -2 10 -4z"/>
<path d="M11742 1973 c-147 -73 -272 -239 -272 -359 0 -29 3 -60 6 -69 10 -25
62 -48 98 -41 44 9 135 83 187 154 24 34 49 62 54 62 6 0 10 -28 10 -66 0 -58
3 -67 25 -85 20 -16 35 -19 74 -15 79 9 156 65 220 160 43 64 29 65 -28 1 -65
-73 -149 -123 -172 -104 -20 16 -15 85 13 187 l20 73 -21 15 c-42 29 -68 12
-146 -92 -29 -38 -60 -78 -70 -89 -11 -11 -37 -41 -60 -66 -39 -46 -94 -78
-107 -65 -21 20 127 239 212 314 63 56 108 69 159 48 51 -21 55 -20 51 9 -3
30 -1 28 -42 49 -55 28 -128 21 -211 -21z m177 8 c10 -6 1 -9 -27 -8 -23 1
-42 5 -42 10 0 10 52 9 69 -2z m56 -39 c-2 -2 -11 2 -19 11 -8 8 -12 18 -8 21
3 4 12 -1 19 -10 7 -10 11 -20 8 -22z"/>
<path d="M14785 1501 c-74 -14 -189 -62 -320 -133 -349 -191 -459 -299 -362
-358 40 -25 99 -26 216 -4 115 22 180 46 274 101 128 75 251 202 300 312 l19
44 249 -5 c137 -3 252 -2 254 3 3 5 -11 16 -32 26 -32 14 -76 17 -298 19 -143
1 -278 -1 -300 -5z m5 -82 c0 -24 -76 -123 -138 -180 -110 -101 -249 -172
-359 -185 -34 -3 -73 -4 -87 0 -25 6 -25 7 -8 35 25 41 67 73 258 193 65 41
183 99 254 124 75 27 80 28 80 13z m-365 -127 c-3 -3 -11 0 -18 7 -9 10 -8 11
6 5 10 -3 15 -9 12 -12z m-31 -16 c-3 -8 -13 -17 -22 -21 -13 -5 -13 -2 3 15
21 24 26 25 19 6z m-74 -56 c-24 -15 -37 -11 -16 5 11 8 22 12 25 9 3 -3 -1
-9 -9 -14z m-83 -206 c-3 -3 -12 -4 -19 -1 -8 3 -5 6 6 6 11 1 17 -2 13 -5z"/>
</g>
</svg>
