<?xml version="1.0" standalone="no"?>
<!DOCTYPE svg PUBLIC "-//W3C//DTD SVG 20010904//EN"
 "http://www.w3.org/TR/2001/REC-SVG-20010904/DTD/svg10.dtd">
<svg version="1.0" xmlns="http://www.w3.org/2000/svg"
 width="1536.000000pt" height="1024.000000pt" viewBox="0 0 1536.000000 1024.000000"
 preserveAspectRatio="xMidYMid meet">

<g transform="translate(0.000000,1024.000000) scale(0.100000,-0.100000)"
fill="#000000" stroke="none">
<path d="M8140 7309 c-30 -4 -86 -10 -125 -14 -100 -9 -231 -44 -440 -118
-118 -43 -391 -170 -735 -342 -353 -178 -415 -210 -421 -219 -14 -18 -82 3
-110 34 -15 16 -33 30 -38 30 -6 0 -11 4 -11 9 0 10 -77 20 -97 13 -7 -2 -13
-9 -13 -16 0 -17 -43 -42 -48 -27 -2 6 -13 11 -25 11 -20 1 -20 2 -4 11 26 15
21 27 -10 22 -23 -4 -25 -2 -13 7 12 9 7 10 -20 5 -19 -4 -52 -7 -72 -8 -21
-1 -38 -4 -38 -7 0 -12 41 -40 58 -40 10 0 28 -7 40 -16 22 -15 22 -17 6 -35
-9 -10 -26 -21 -38 -25 -36 -11 -47 -24 -35 -45 8 -16 6 -19 -12 -19 -14 0
-19 -5 -16 -15 4 -8 2 -17 -4 -20 -5 -4 0 -19 12 -37 l22 -30 -52 3 c-28 2
-51 1 -51 -2 0 -7 39 -27 65 -32 17 -4 16 -5 -4 -6 -20 -1 -21 -3 -11 -16 9
-10 9 -15 1 -15 -15 0 -14 -30 4 -63 14 -27 14 -28 -8 -21 -12 4 -34 15 -49
25 -28 21 -42 13 -32 -18 4 -11 -6 -6 -25 15 -29 30 -33 31 -47 17 -14 -13
-20 -52 -23 -142 -1 -16 -9 -23 -32 -28 -17 -4 -29 -9 -26 -11 2 -2 31 2 63
10 89 22 319 35 834 46 256 5 494 12 530 15 570 40 1306 -20 1708 -141 29 -9
52 -18 50 -19 -2 -2 -39 1 -83 7 -45 6 -199 10 -355 9 -458 -4 -632 -3 -690 2
-32 3 -44 2 -30 -2 26 -8 77 -13 535 -56 323 -31 409 -38 710 -60 121 -8 240
-18 265 -20 32 -3 41 -2 30 5 -11 7 -5 10 23 10 21 0 185 10 365 22 347 24
484 27 597 16 39 -4 108 -9 155 -12 l85 -5 -69 9 c-116 15 -212 60 -259 122
-14 18 -69 114 -122 213 -144 269 -208 360 -354 506 -87 86 -148 139 -198 167
-74 43 -111 57 -58 22 39 -26 25 -26 -25 0 -38 20 -56 38 -25 26 22 -8 18 2
-6 15 -17 8 -20 8 -14 -1 5 -8 3 -11 -6 -8 -8 3 -13 11 -12 17 3 10 -10 15
-30 12 -15 -3 -47 20 -42 30 4 5 -1 9 -9 9 -9 0 -66 24 -128 54 -128 61 -154
70 -162 58 -3 -5 32 -23 77 -41 207 -83 497 -259 586 -355 14 -14 29 -26 35
-26 6 0 -8 19 -29 43 -22 24 3 0 55 -53 53 -52 106 -111 119 -130 21 -32 20
-32 -11 5 -59 72 -121 135 -126 131 -2 -3 21 -33 52 -68 83 -91 161 -210 272
-417 60 -110 118 -204 147 -236 26 -29 47 -56 47 -59 0 -3 -12 -6 -27 -5 l-28
1 25 7 c24 7 24 7 -10 20 -77 28 -168 75 -227 118 -35 24 -63 41 -63 37 0 -5
-16 7 -35 26 -19 19 -35 29 -35 23 0 -23 -55 16 -90 63 -19 26 -93 107 -164
181 -71 73 -127 135 -124 139 4 3 13 -3 20 -15 7 -12 18 -21 24 -21 16 0 89
-65 229 -205 134 -134 174 -169 137 -120 -44 57 -260 272 -333 331 -71 58
-204 151 -299 209 l-45 28 41 -45 c45 -49 121 -172 189 -309 84 -166 11 -82
-90 105 -100 184 -157 242 -310 317 -235 113 -402 153 -640 153 -291 -1 -481
-41 -940 -199 -280 -96 -393 -131 -580 -180 -55 -15 -125 -36 -156 -46 -51
-18 -58 -18 -85 -4 -16 8 -40 15 -54 15 -19 1 -13 6 25 21 79 32 484 233 550
274 97 59 338 172 499 235 281 110 460 143 776 143 204 -1 222 -2 353 -32 76
-17 154 -38 174 -46 50 -21 64 -19 25 5 -45 27 -196 66 -312 79 -119 14 -367
19 -440 10z m496 -328 c16 -5 41 -12 57 -15 15 -4 27 -11 27 -16 0 -5 -12 -5
-30 2 -17 5 -37 7 -46 4 -8 -3 -12 -2 -9 3 3 6 -14 14 -37 19 -31 7 -36 10
-17 11 14 1 39 -3 55 -8z m822 -28 c36 -23 92 -70 92 -78 0 -7 -118 74 -126
87 -8 13 3 10 34 -9z m-646 -29 c40 -15 112 -46 161 -70 88 -45 116 -65 53
-39 -22 10 -37 11 -41 5 -11 -17 -24 -11 -20 10 2 13 -2 20 -11 20 -9 0 -12
-5 -8 -12 4 -8 3 -10 -2 -5 -5 5 -9 14 -9 20 0 5 -6 12 -14 15 -8 3 -11 0 -8
-5 4 -6 -7 -10 -23 -11 -17 0 -30 4 -30 9 0 6 -7 4 -15 -5 -19 -18 -19 -27 -1
-20 8 3 16 1 20 -4 4 -7 -27 -9 -44 -2 -3 1 -8 2 -12 1 -3 0 -11 13 -17 30 -6
17 -15 28 -21 24 -6 -3 -7 -12 -3 -18 4 -7 0 -7 -10 1 -18 15 -41 7 -31 -10 4
-7 2 -8 -5 -4 -6 4 -9 12 -6 17 4 5 -10 9 -29 9 -19 0 -38 5 -41 11 -4 6 -13
8 -21 5 -7 -3 -16 0 -20 6 -5 7 -2 8 6 3 8 -5 11 -3 8 6 -3 8 -11 13 -17 12
-6 -2 -11 1 -11 6 0 13 53 11 69 -3 11 -8 13 -8 7 1 -9 16 55 5 65 -10 4 -5
15 -7 25 -3 17 7 17 9 -6 21 -38 21 -19 18 62 -11z m-338 -14 c-6 -6 -10 -2
-11 12 -2 16 1 18 10 9 7 -7 8 -14 1 -21z m106 5 c10 -13 9 -15 -11 -14 -13 0
-18 3 -11 6 6 2 10 9 6 14 -9 15 2 10 16 -6z m60 -35 c0 -5 -5 -10 -11 -10 -5
0 -7 5 -4 10 3 6 8 10 11 10 2 0 4 -4 4 -10z m-429 -51 c282 -36 618 -173
1000 -405 107 -65 399 -224 468 -255 25 -12 105 -50 176 -86 72 -36 153 -69
180 -73 91 -16 -404 -2 -555 15 -366 41 -569 69 -737 100 -193 37 -526 84
-783 111 -123 14 -245 17 -585 15 -361 -1 -440 1 -490 14 -33 9 -64 20 -69 25
-5 5 -1 7 11 4 18 -5 244 49 267 64 6 3 40 9 76 12 51 6 34 7 -80 9 -80 0
-190 3 -245 6 -64 2 -88 1 -65 -4 47 -11 8 -12 -81 -3 -62 7 -66 7 -61 -11 6
-23 -6 -20 -99 22 l-61 28 194 62 c106 35 281 94 388 131 413 145 575 190 810
224 58 8 263 5 341 -5z m1046 -127 c27 -20 30 -26 21 -42 -11 -17 -14 -16 -36
13 -13 18 -28 40 -34 51 -12 21 -3 18 49 -22z m-415 11 c-6 -2 -10 -9 -7 -14
4 -5 -1 -6 -9 -3 -20 8 -11 24 12 23 11 0 12 -2 4 -6z m309 -10 c13 -16 12
-17 -3 -4 -10 7 -18 15 -18 17 0 8 8 3 21 -13z m-3151 -22 c0 -5 -9 -7 -20 -4
-11 3 -20 7 -20 9 0 2 9 4 20 4 11 0 20 -4 20 -9z m180 -51 c0 -5 -7 -7 -15
-4 -11 4 -13 2 -9 -9 6 -17 77 -49 82 -37 3 7 99 -13 155 -33 31 -11 38 -32 7
-22 -30 10 -24 -3 13 -26 l32 -21 -40 6 -40 7 32 -21 c20 -13 30 -27 26 -36
-8 -21 -23 -17 -73 16 -25 16 -53 30 -62 30 -10 0 -18 6 -18 14 0 13 -58 51
-66 43 -1 -1 8 -22 20 -47 18 -37 34 -51 88 -80 69 -37 122 -89 116 -115 -3
-15 -5 -15 -23 0 -19 14 -19 15 -1 8 17 -5 15 -1 -8 30 -32 42 -36 44 -29 18
4 -16 -2 -19 -39 -23 -49 -5 -87 15 -88 47 -1 11 -4 14 -7 8 -2 -7 -9 -13 -15
-13 -15 0 -35 -24 -30 -38 2 -6 -3 -12 -12 -12 -12 0 -16 -11 -16 -46 0 -44 1
-46 25 -40 18 5 25 2 25 -8 0 -8 8 -20 18 -25 14 -9 13 -10 -11 -11 -43 0 -66
34 -67 98 0 35 4 52 13 53 10 0 10 2 0 6 -7 2 -13 14 -13 26 0 29 -15 53 -24
39 -4 -6 -14 -9 -24 -6 -12 4 -13 3 -4 -3 9 -7 5 -16 -17 -37 -37 -35 -66 -30
-51 9 13 34 51 85 60 80 4 -2 7 1 7 8 0 7 4 21 9 32 4 11 -7 3 -25 -18 -33
-37 -89 -77 -65 -46 6 8 9 35 8 61 -3 39 0 48 16 53 11 4 20 10 20 14 0 5 14
14 30 21 39 16 38 30 -1 30 -16 0 -28 4 -25 9 3 4 17 6 31 3 15 -2 25 0 25 7
0 6 14 11 30 11 17 0 30 -4 30 -10z m3641 -47 c13 -16 12 -17 -3 -4 -10 7 -18
15 -18 17 0 8 8 3 21 -13z m-3795 -28 c-22 -17 -36 -18 -62 -8 -16 6 -16 7 2
14 10 4 33 8 49 8 29 0 29 0 11 -14z m-51 -113 c-3 -3 -11 0 -18 7 -9 10 -8
11 6 5 10 -3 15 -9 12 -12z m881 -74 c3 -4 -1 -5 -10 -4 -8 1 -18 5 -22 8 -3
4 1 5 10 4 8 -1 18 -5 22 -8z m184 -8 c-36 -11 -50 -11 -50 0 0 6 17 10 38 9
33 -1 34 -2 12 -9z m-285 -40 c13 -5 14 -9 5 -9 -8 0 -24 4 -35 9 -13 5 -14 9
-5 9 8 0 24 -4 35 -9z m-788 -76 c-3 -3 -12 -4 -19 -1 -8 3 -5 6 6 6 11 1 17
-2 13 -5z m-50 -10 c-3 -3 -12 -4 -19 -1 -8 3 -5 6 6 6 11 1 17 -2 13 -5z
m3948 -96 c14 -14 50 -37 79 -51 29 -14 56 -33 59 -41 8 -20 0 -20 -43 4 -19
11 -54 29 -77 40 -23 11 -43 25 -45 31 -2 6 -19 13 -38 15 -19 2 -39 9 -45 16
-7 8 -5 9 8 5 9 -4 17 -2 17 3 0 19 60 3 85 -22z"/>
<path d="M8765 6910 c-3 -5 -4 -10 -1 -10 2 0 11 -3 20 -6 11 -4 16 -1 16 10
0 18 -25 22 -35 6z"/>
<path d="M8875 6880 c-4 -6 3 -10 14 -10 25 0 27 6 6 13 -8 4 -17 2 -20 -3z"/>
<path d="M7348 6383 c34 -2 90 -2 125 0 34 2 6 3 -63 3 -69 0 -97 -1 -62 -3z"/>
<path d="M7621 6376 c2 -2 47 -6 99 -9 68 -4 81 -3 45 3 -52 9 -152 13 -144 6z"/>
<path d="M7833 6353 c9 -2 25 -2 35 0 9 3 1 5 -18 5 -19 0 -27 -2 -17 -5z"/>
<path d="M7903 6343 c9 -2 25 -2 35 0 9 3 1 5 -18 5 -19 0 -27 -2 -17 -5z"/>
<path d="M8028 6323 c7 -3 16 -2 19 1 4 3 -2 6 -13 5 -11 0 -14 -3 -6 -6z"/>
<path d="M8128 6303 c7 -3 16 -2 19 1 4 3 -2 6 -13 5 -11 0 -14 -3 -6 -6z"/>
<path d="M8168 6293 c6 -2 18 -2 25 0 6 3 1 5 -13 5 -14 0 -19 -2 -12 -5z"/>
<path d="M8218 6283 c6 -2 18 -2 25 0 6 3 1 5 -13 5 -14 0 -19 -2 -12 -5z"/>
<path d="M8278 6273 c7 -3 16 -2 19 1 4 3 -2 6 -13 5 -11 0 -14 -3 -6 -6z"/>
<path d="M8758 6143 c6 -2 18 -2 25 0 6 3 1 5 -13 5 -14 0 -19 -2 -12 -5z"/>
<path d="M8808 6133 c7 -3 16 -2 19 1 4 3 -2 6 -13 5 -11 0 -14 -3 -6 -6z"/>
<path d="M8858 6123 c7 -3 16 -2 19 1 4 3 -2 6 -13 5 -11 0 -14 -3 -6 -6z"/>
<path d="M8908 6113 c7 -3 16 -2 19 1 4 3 -2 6 -13 5 -11 0 -14 -3 -6 -6z"/>
<path d="M9255 6680 c3 -5 11 -10 16 -10 6 0 7 5 4 10 -3 6 -11 10 -16 10 -6
0 -7 -4 -4 -10z"/>
<path d="M6274 6552 c9 -15 48 -23 43 -9 -2 7 -14 14 -26 15 -13 2 -21 -1 -17
-6z"/>
<path d="M6277 6409 c7 -7 15 -10 18 -7 3 3 -2 9 -12 12 -14 6 -15 5 -6 -5z"/>
<path d="M6045 6390 c-3 -5 -1 -10 5 -10 6 0 8 -5 4 -12 -5 -9 -2 -9 9 1 9 7
17 17 17 22 0 12 -27 11 -35 -1z"/>
<path d="M8120 7205 c-8 -2 -80 -13 -158 -26 -94 -14 -139 -25 -129 -31 9 -5
41 -2 79 6 122 29 205 39 378 46 l175 7 -165 0 c-91 0 -172 -1 -180 -2z"/>
<path d="M8493 7193 c9 -2 23 -2 30 0 6 3 -1 5 -18 5 -16 0 -22 -2 -12 -5z"/>
<path d="M8568 7183 c6 -2 18 -2 25 0 6 3 1 5 -13 5 -14 0 -19 -2 -12 -5z"/>
<path d="M8628 7173 c7 -3 16 -2 19 1 4 3 -2 6 -13 5 -11 0 -14 -3 -6 -6z"/>
<path d="M7697 7118 c-48 -16 -85 -33 -82 -38 3 -4 -5 -6 -17 -2 -16 4 -19 2
-13 -8 5 -9 4 -11 -4 -6 -16 10 -73 -13 -64 -27 4 -6 0 -8 -11 -4 -11 4 -15 3
-10 -4 4 -7 0 -9 -12 -5 -11 3 -41 -5 -69 -17 -38 -18 -45 -25 -32 -30 11 -4
16 -3 12 3 -4 6 4 9 17 7 15 -1 22 3 20 11 -2 10 4 11 19 7 13 -5 19 -3 15 3
-3 5 4 10 17 10 35 0 292 98 276 106 -8 3 0 4 16 1 24 -4 27 -3 15 6 -12 8 -8
9 15 5 22 -5 26 -4 15 4 -20 13 -22 13 -123 -22z"/>
<path d="M9338 7101 c-101 -11 -70 -16 95 -16 138 0 175 -3 252 -24 50 -13
116 -36 147 -52 64 -32 72 -35 62 -16 -4 7 -3 9 2 4 5 -5 9 -12 9 -16 0 -4 34
-35 75 -69 178 -143 289 -344 394 -708 47 -165 96 -289 96 -246 0 19 -77 323
-106 421 -28 91 -113 272 -165 349 -53 77 -218 233 -289 271 -35 19 -60 28
-56 20 4 -8 1 -6 -8 5 -8 10 -20 15 -27 10 -7 -4 -10 -3 -6 4 10 15 -108 52
-146 46 -22 -4 -28 -3 -19 4 10 7 5 11 -18 16 -38 7 -211 6 -292 -3z m369 -27
c-3 -3 -12 -4 -19 -1 -8 3 -5 6 6 6 11 1 17 -2 13 -5z m253 -119 c19 -14 30
-25 24 -25 -10 0 -73 49 -63 50 3 0 20 -11 39 -25z m131 -113 c19 -22 48 -57
65 -78 39 -49 124 -194 124 -212 0 -7 7 -27 16 -43 8 -17 13 -33 11 -36 -3 -2
-28 44 -56 103 -59 124 -115 205 -197 288 -34 35 -46 51 -28 38 17 -12 46 -39
65 -60z m254 -444 c57 -201 85 -311 80 -316 -2 -2 -9 16 -15 39 -32 120 -79
279 -95 322 -4 9 -3 17 3 17 5 0 17 -28 27 -62z"/>
<path d="M6120 7013 c0 -7 6 -10 14 -7 8 3 24 1 35 -6 16 -8 21 -8 21 2 0 9 3
9 12 0 7 -7 17 -12 22 -12 6 0 1 7 -11 15 -12 8 -29 12 -39 8 -10 -3 -15 -2
-12 3 4 5 -5 9 -18 9 -13 0 -24 -5 -24 -12z"/>
<path d="M6118 6963 c7 -3 16 -2 19 1 4 3 -2 6 -13 5 -11 0 -14 -3 -6 -6z"/>
<path d="M7326 6958 c5 -8 2 -9 -10 -5 -10 4 -15 3 -11 -3 5 -9 -15 -15 -37
-11 -5 0 -8 -4 -8 -10 0 -5 -4 -8 -10 -4 -5 3 -40 -10 -77 -29 -37 -19 -60
-35 -50 -36 11 0 31 6 45 14 15 8 62 29 104 47 42 18 75 36 72 41 -3 4 -10 8
-15 8 -6 0 -7 -5 -3 -12z"/>
<path d="M5730 6950 c20 -13 33 -13 25 0 -3 6 -14 10 -23 10 -15 0 -15 -2 -2
-10z"/>
<path d="M5725 6921 c-7 -13 -9 -12 33 -16 22 -2 32 0 29 8 -5 16 -53 21 -62
8z"/>
<path d="M5665 6910 c-3 -5 -1 -10 4 -10 6 0 11 5 11 10 0 6 -2 10 -4 10 -3 0
-8 -4 -11 -10z"/>
<path d="M6225 6890 c27 -12 35 -12 35 0 0 6 -12 10 -27 9 -25 0 -26 -1 -8 -9z"/>
<path d="M5738 6883 c6 -2 18 -2 25 0 6 3 1 5 -13 5 -14 0 -19 -2 -12 -5z"/>
<path d="M6180 6861 c-14 -27 -13 -41 4 -41 8 0 16 -5 18 -11 2 -5 11 -7 21
-3 12 4 16 13 12 25 -5 15 -1 19 15 19 12 0 19 4 16 9 -3 5 -15 7 -26 4 -11
-3 -20 0 -20 6 0 18 -29 12 -40 -8z"/>
<path d="M6080 6860 c0 -5 -6 -10 -12 -10 -14 0 -68 -39 -55 -40 4 0 20 6 36
14 32 17 59 46 42 46 -6 0 -11 -4 -11 -10z"/>
<path d="M5700 6852 c-14 -1 -34 -7 -45 -12 -11 -5 -29 -11 -40 -13 -11 -3 -2
-3 20 -1 22 1 69 -5 105 -15 66 -17 115 -17 105 0 -4 5 -26 9 -50 9 -30 0 -48
5 -57 18 -8 10 -23 16 -38 14z"/>
<path d="M5686 6783 c3 -50 4 -53 20 -53 13 0 14 3 5 13 -8 11 -6 18 10 33 19
17 19 19 2 25 -32 13 -39 10 -37 -18z"/>
<path d="M6168 6803 c7 -3 16 -2 19 1 4 3 -2 6 -13 5 -11 0 -14 -3 -6 -6z"/>
<path d="M6260 6800 c0 -5 11 -10 24 -10 13 0 31 -3 40 -6 9 -3 16 -2 16 3 0
5 -6 10 -13 10 -7 0 -25 3 -40 7 -16 4 -27 2 -27 -4z"/>
<path d="M6075 6790 c-3 -5 1 -10 9 -10 8 0 18 5 21 10 3 6 -1 10 -9 10 -8 0
-18 -4 -21 -10z"/>
<path d="M6243 6763 c20 -14 37 -30 37 -35 0 -11 52 -10 70 2 11 7 7 10 -18
10 -19 0 -49 11 -70 25 -49 34 -67 32 -19 -2z"/>
<path d="M6105 6770 c-3 -5 -16 -10 -29 -10 -12 0 -31 -7 -42 -15 -18 -13 -17
-14 11 -6 17 4 39 5 50 1 16 -6 20 -3 20 16 0 27 -1 28 -10 14z"/>
<path d="M6166 6764 c-12 -31 -6 -44 19 -44 25 0 31 13 19 44 -3 9 -12 16 -19
16 -7 0 -16 -7 -19 -16z"/>
<path d="M6290 6766 c0 -2 7 -6 15 -10 8 -3 15 -1 15 4 0 6 -7 10 -15 10 -8 0
-15 -2 -15 -4z"/>
<path d="M5805 6744 c16 -12 17 -16 6 -23 -11 -7 -9 -11 8 -20 17 -10 21 -9
21 5 0 13 7 15 38 9 35 -6 36 -6 17 9 -11 8 -32 16 -47 16 -15 0 -30 5 -33 10
-3 6 -12 10 -18 10 -7 0 -3 -7 8 -16z"/>
<path d="M5626 6719 c3 -5 -2 -9 -10 -9 -9 0 -16 -6 -16 -14 0 -8 -17 -20 -37
-26 -38 -12 -66 -30 -47 -30 27 0 83 22 88 35 3 8 11 15 18 15 7 0 21 7 31 14
16 13 16 14 -7 18 -14 3 -23 1 -20 -3z"/>
<path d="M5759 6686 c27 -29 33 -32 25 -13 -2 7 -14 19 -27 26 -21 13 -21 12
2 -13z"/>
<path d="M5877 6694 c-9 -10 12 -34 30 -34 19 0 12 34 -8 38 -8 1 -18 0 -22
-4z"/>
<path d="M6300 6696 c0 -2 7 -9 15 -16 13 -11 14 -10 9 4 -5 14 -24 23 -24 12z"/>
<path d="M5456 6626 c3 -9 11 -16 16 -16 13 0 5 23 -10 28 -7 2 -10 -2 -6 -12z"/>
<path d="M5705 6620 c-3 -11 -11 -20 -17 -20 -5 0 -7 -7 -4 -16 3 -8 2 -12 -4
-9 -6 3 -10 1 -10 -4 0 -6 6 -11 14 -11 15 0 58 65 49 74 -12 11 -22 6 -28
-14z"/>
<path d="M5806 6632 c-2 -4 4 -13 15 -20 16 -11 19 -9 19 8 0 19 -24 28 -34
12z"/>
<path d="M6348 6633 c6 -2 18 -2 25 0 6 3 1 5 -13 5 -14 0 -19 -2 -12 -5z"/>
<path d="M5865 6600 c11 -5 29 -9 40 -9 l20 0 -20 9 c-11 5 -29 9 -40 9 l-20
0 20 -9z"/>
<path d="M5565 6590 c-3 -5 3 -10 14 -10 12 0 21 5 21 10 0 6 -6 10 -14 10 -8
0 -18 -4 -21 -10z"/>
<path d="M5800 6575 c7 -8 17 -15 22 -15 6 0 5 7 -2 15 -7 8 -17 15 -22 15 -6
0 -5 -7 2 -15z"/>
<path d="M5637 6573 c-4 -3 -15 -7 -25 -8 -9 -1 -28 -7 -40 -14 -13 -7 -26
-10 -29 -8 -2 3 -20 -5 -39 -18 -19 -13 -51 -29 -69 -35 -43 -14 -46 -31 -4
-28 29 2 54 18 27 18 -7 0 6 9 27 20 22 11 47 19 55 18 8 -1 25 3 38 10 15 9
22 9 22 2 0 -12 59 30 59 43 1 9 -13 9 -22 0z"/>
<path d="M5746 6536 c3 -8 17 -22 30 -31 14 -9 22 -20 19 -24 -6 -10 20 -23
29 -14 6 6 -66 83 -78 83 -3 0 -3 -6 0 -14z"/>
<path d="M5840 6521 c0 -12 39 -35 46 -28 3 2 -7 12 -21 21 -14 9 -25 12 -25
7z"/>
<path d="M5713 6495 c-32 -14 -41 -29 -24 -39 4 -3 7 -18 5 -33 -4 -24 -3 -25
5 -8 5 11 7 30 4 41 -2 12 0 25 6 28 6 4 11 0 11 -11 0 -15 3 -14 16 5 21 30
16 33 -23 17z"/>
<path d="M5585 6462 c-13 -9 -39 -42 -33 -42 9 0 51 40 47 45 -3 2 -9 1 -14
-3z"/>
<path d="M5823 6456 c-28 -13 -29 -29 -5 -47 16 -13 16 -13 2 5 -14 18 -13 19
3 13 9 -3 17 -2 17 3 0 5 12 10 27 12 l28 3 -25 10 c-17 8 -32 8 -47 1z"/>
<path d="M5549 6385 c-19 -14 -47 -34 -64 -45 -16 -11 -24 -20 -16 -20 13 0
121 77 121 86 0 8 -7 4 -41 -21z"/>
<path d="M5693 6377 c-13 -17 -23 -26 -23 -20 0 10 -6 10 -25 1 -21 -10 -28
-8 -41 8 -15 18 -15 18 -6 0 15 -29 3 -53 -31 -65 -28 -9 -29 -10 -5 -7 19 2
25 -1 21 -11 -3 -7 -1 -13 5 -13 5 0 12 9 15 20 3 11 13 23 24 26 10 3 25 9
35 14 13 7 16 5 14 -13 -2 -12 -7 -31 -13 -42 -6 -11 -13 -36 -17 -56 -3 -20
-15 -44 -24 -53 -19 -16 -168 -51 -347 -81 -55 -9 -149 -27 -210 -40 -60 -13
-145 -29 -187 -36 -43 -6 -75 -16 -72 -20 6 -10 1455 -5 1879 6 149 4 273 11
278 14 10 10 -565 16 -1283 14 -333 -1 -600 0 -595 2 13 6 155 31 285 50 58 9
135 23 171 31 37 8 74 14 83 14 9 0 24 17 34 38 9 20 21 40 26 44 16 11 32 80
35 146 1 34 1 62 -1 62 -2 0 -13 -15 -25 -33z m4 -49 c-3 -7 -5 -2 -5 12 0 14
2 19 5 13 2 -7 2 -19 0 -25z m-630 -314 c-3 -3 -12 -4 -19 -1 -8 3 -5 6 6 6
11 1 17 -2 13 -5z m812 1 c-10 -10 -110 -15 -104 -5 3 6 29 10 57 10 28 0 49
-2 47 -5z m-206 -12 c-13 -2 -35 -2 -50 0 -16 2 -5 4 22 4 28 0 40 -2 28 -4z
m-670 -10 c-7 -2 -19 -2 -25 0 -7 3 -2 5 12 5 14 0 19 -2 13 -5z"/>
<path d="M5516 6315 c4 -8 8 -15 10 -15 2 0 4 7 4 15 0 8 -4 15 -10 15 -5 0
-7 -7 -4 -15z"/>
<path d="M5429 6304 c-16 -20 -21 -46 -7 -42 5 2 10 8 10 13 0 6 4 18 9 28 12
21 6 22 -12 1z"/>
<path d="M5455 6270 c-3 -5 -2 -10 4 -10 5 0 13 5 16 10 3 6 2 10 -4 10 -5 0
-13 -4 -16 -10z"/>
<path d="M7138 6173 c12 -2 30 -2 40 0 9 3 -1 5 -23 4 -22 0 -30 -2 -17 -4z"/>
<path d="M7225 6170 c-4 -6 52 -10 147 -10 84 0 203 -7 263 -15 117 -15 141
-17 134 -11 -23 23 -532 56 -544 36z"/>
<path d="M5785 6130 c-16 -4 -25 -9 -20 -10 6 -2 -8 -6 -30 -11 -27 -5 -14 -6
40 -3 44 3 392 5 774 5 382 -1 693 1 690 3 -2 3 -162 7 -354 11 -770 14 -965
15 -965 5 0 -5 -26 -9 -57 -8 -40 0 -52 3 -38 9 25 10 0 9 -40 -1z"/>
<path d="M7813 6123 c15 -2 39 -2 55 0 15 2 2 4 -28 4 -30 0 -43 -2 -27 -4z"/>
<path d="M5600 6098 c0 -5 18 -8 40 -8 22 0 40 3 40 8 0 4 -18 7 -40 7 -22 0
-40 -3 -40 -7z"/>
<path d="M7798 6093 c7 -3 16 -2 19 1 4 3 -2 6 -13 5 -11 0 -14 -3 -6 -6z"/>
<path d="M8668 6063 c6 -2 18 -2 25 0 6 3 1 5 -13 5 -14 0 -19 -2 -12 -5z"/>
<path d="M5658 5921 c-53 -3 -100 -10 -105 -14 -4 -5 20 -5 55 -1 54 6 65 4
76 -11 12 -17 27 -18 227 -10 118 5 239 8 269 8 45 -1 49 0 25 7 -30 8 -30 8
10 11 57 4 -219 17 -350 16 -60 0 -154 -3 -207 -6z m225 -18 c-24 -2 -62 -2
-85 0 -24 2 -5 4 42 4 47 0 66 -2 43 -4z"/>
<path d="M8380 5910 c-12 -9 -10 -11 10 -7 14 3 34 1 45 -3 12 -5 -17 -7 -70
-5 -74 2 -81 2 -40 -5 100 -17 473 -50 590 -52 126 -3 399 11 390 20 -3 3 -80
9 -173 13 -92 4 -212 12 -267 18 -55 6 -145 12 -200 15 -55 2 -138 7 -185 11
-58 4 -90 2 -100 -5z m339 -24 c-2 -2 -31 -6 -64 -9 -37 -3 -51 -2 -35 3 25 8
107 13 99 6z"/>
<path d="M8188 5903 c12 -2 30 -2 40 0 9 3 -1 5 -23 4 -22 0 -30 -2 -17 -4z"/>
<path d="M7313 5783 c-19 -7 -16 -31 5 -42 20 -11 42 2 42 25 0 9 -25 27 -33
23 -1 0 -8 -3 -14 -6z"/>
<path d="M6963 5700 c-25 -10 -43 -39 -43 -69 0 -29 32 -55 94 -74 65 -21 82
-37 66 -66 -8 -17 -20 -21 -58 -21 -27 0 -57 7 -68 15 -26 20 -34 19 -34 -5 0
-28 36 -43 103 -43 71 0 110 24 115 71 4 40 -20 61 -101 87 -66 22 -85 47 -51
72 22 16 78 17 106 2 24 -13 41 0 28 21 -10 17 -124 25 -157 10z"/>
<path d="M7325 5703 c-19 -4 -20 -12 -20 -133 l0 -130 27 0 28 0 0 129 c0 72
-3 131 -7 133 -5 2 -17 2 -28 1z"/>
<path d="M7502 5693 c2 -14 15 -19 51 -21 l47 -3 0 -115 0 -114 30 0 30 0 0
115 0 115 45 0 c38 0 45 3 45 20 0 19 -7 20 -126 20 -114 0 -125 -2 -122 -17z"/>
<path d="M7894 5575 l1 -135 28 0 27 0 0 135 0 135 -29 0 -28 0 1 -135z"/>
<path d="M8170 5692 c-48 -23 -73 -74 -65 -131 10 -81 58 -122 144 -124 113
-3 180 94 137 198 -29 69 -136 98 -216 57z m137 -27 c28 -19 47 -78 39 -118
-10 -49 -43 -77 -90 -77 -63 1 -96 37 -96 105 0 40 14 73 39 92 22 17 82 16
108 -2z"/>
<path d="M10585 5405 c-271 -42 -515 -159 -697 -333 -138 -132 -208 -260 -208
-378 0 -88 29 -137 102 -175 63 -32 144 -35 206 -9 37 16 52 28 49 39 -2 9
-10 14 -18 12 -35 -11 -118 -4 -143 13 -75 49 -61 207 31 346 114 172 304 312
514 378 144 46 215 56 369 49 158 -6 236 -27 326 -85 70 -46 94 -72 126 -132
20 -39 23 -59 23 -150 0 -98 -2 -110 -33 -174 -102 -216 -330 -410 -610 -521
-94 -37 -258 -82 -267 -74 -2 3 39 99 91 215 251 550 348 778 341 799 -3 7
-18 17 -34 23 -32 11 -95 -5 -118 -30 -7 -7 -34 -65 -60 -128 -26 -63 -102
-241 -170 -395 -68 -154 -142 -324 -166 -378 -25 -58 -52 -105 -65 -114 -17
-11 -44 -14 -96 -12 -70 3 -98 -3 -98 -21 0 -14 61 -30 116 -30 37 0 54 -4 54
-13 0 -7 -47 -113 -105 -235 -113 -241 -122 -273 -81 -311 30 -28 97 -39 114
-19 6 8 27 57 46 109 44 119 149 376 176 429 18 36 24 40 58 40 154 1 483 129
676 264 209 145 357 332 386 485 42 224 -68 398 -307 484 -127 46 -354 60
-528 32z"/>
<path d="M4450 5395 c-8 -2 -49 -9 -90 -15 -106 -17 -247 -64 -375 -125 -356
-169 -583 -471 -496 -660 10 -22 27 -48 37 -57 62 -55 191 -68 263 -27 58 32
53 46 -16 42 -146 -10 -194 118 -109 292 127 258 460 456 814 485 210 17 342
-16 420 -105 80 -91 82 -210 5 -364 -58 -116 -263 -295 -443 -387 -64 -32
-241 -94 -252 -88 -8 5 1 27 200 454 123 265 152 334 152 360 0 47 -105 52
-136 5 -15 -23 -92 -188 -279 -595 -54 -118 -107 -225 -117 -236 -13 -14 -37
-24 -71 -28 -72 -10 -127 -25 -127 -36 0 -18 26 -24 93 -22 l69 3 -77 -143
c-42 -79 -117 -225 -168 -326 -88 -177 -91 -184 -77 -210 21 -38 85 -68 119
-56 20 8 33 28 64 104 49 122 186 444 227 535 l31 69 49 -93 c180 -340 512
-618 855 -714 157 -44 205 -50 363 -44 201 8 331 45 447 128 45 32 81 76 71
86 -3 3 -45 -15 -93 -40 -131 -67 -229 -89 -409 -88 -238 0 -488 92 -724 265
-94 69 -239 217 -297 301 -40 60 -133 231 -133 245 0 5 24 14 53 20 148 35
348 126 471 214 151 108 283 259 325 372 79 210 -2 375 -225 455 -50 19 -85
22 -229 25 -93 1 -177 1 -185 -1z"/>
<path d="M7710 5126 c-15 -9 -55 -70 -110 -172 -76 -142 -88 -159 -110 -158
-14 1 -78 9 -143 18 -163 22 -487 21 -576 -2 -57 -15 -95 -42 -80 -56 3 -3 54
1 114 9 171 23 399 15 612 -20 66 -11 66 -10 28 -77 -62 -109 -164 -316 -196
-395 -33 -84 -46 -103 -122 -181 -58 -61 -112 -92 -157 -92 -28 0 -30 2 -30
39 0 22 22 98 50 175 28 75 50 142 50 150 0 7 -10 26 -22 41 -19 24 -26 27
-64 22 -54 -6 -94 -36 -247 -186 l-119 -116 82 163 c44 89 78 166 75 172 -9
15 -71 23 -93 11 -11 -6 -57 -83 -103 -173 -96 -186 -157 -262 -239 -297 -80
-34 -110 -4 -95 97 7 48 60 199 76 217 19 20 9 44 -23 53 -60 16 -82 -1 -142
-106 -82 -144 -198 -272 -247 -272 -17 0 -9 74 14 130 32 78 98 170 159 224
62 55 128 78 217 75 34 -1 64 1 67 4 3 3 -7 14 -22 24 -18 12 -52 19 -100 21
-164 9 -301 -78 -427 -270 -67 -102 -138 -168 -222 -209 -74 -36 -113 -37
-149 -4 -33 30 -35 80 -6 166 33 97 110 203 171 235 34 17 85 18 95 3 14 -23
5 -71 -21 -104 l-26 -34 25 -7 c44 -11 94 31 102 87 11 73 -57 129 -156 129
-60 0 -105 -17 -170 -65 -51 -37 -134 -152 -146 -202 -20 -81 -243 -233 -343
-233 -63 0 -82 16 -88 72 -8 72 3 118 30 118 12 0 56 11 97 25 147 49 258 170
220 240 -29 55 -133 62 -226 15 -190 -94 -309 -340 -224 -460 79 -111 290 -82
455 63 24 20 45 37 48 37 2 0 7 -17 11 -38 15 -94 80 -137 197 -129 79 5 159
44 232 112 26 25 50 45 52 45 3 0 5 -14 5 -30 0 -79 56 -119 139 -98 38 9 60
26 134 101 l87 89 0 -41 c0 -77 35 -128 99 -144 40 -10 123 11 168 43 43 31
74 41 56 18 -6 -7 -13 -27 -16 -44 -5 -27 -3 -33 16 -38 60 -16 74 -9 131 67
124 164 167 215 232 277 70 67 124 107 124 93 0 -5 -16 -49 -36 -98 -27 -66
-38 -110 -41 -167 -5 -75 -5 -78 23 -106 63 -63 178 -43 270 46 l50 47 -1
-140 c0 -176 14 -222 83 -266 25 -16 59 -29 75 -29 l29 0 -30 34 c-78 89 -66
345 29 582 29 76 139 301 187 384 43 76 45 77 104 69 29 -4 121 -11 204 -15
211 -10 345 9 497 71 18 7 24 35 8 35 -5 0 -22 -5 -36 -10 -55 -21 -230 -40
-367 -40 -130 0 -316 15 -328 27 -3 2 6 23 19 46 13 23 53 100 89 170 54 105
63 130 51 138 -20 13 -60 10 -89 -5z m-2584 -731 c19 -48 -116 -168 -223 -200
-19 -5 -22 -3 -16 12 12 32 82 121 116 147 31 24 92 55 110 56 4 0 10 -7 13
-15z"/>
<path d="M9092 5099 c-103 -51 -229 -255 -323 -523 l-38 -110 -86 -17 c-101
-21 -158 -51 -241 -131 -167 -159 -179 -368 -23 -368 62 0 179 87 244 180 15
22 31 40 34 40 4 0 1 -39 -6 -87 -20 -125 -12 -267 17 -327 12 -26 33 -54 46
-63 26 -16 104 -37 112 -29 2 3 -9 19 -26 35 -41 37 -51 65 -58 165 -8 99 7
218 47 380 35 139 37 144 99 216 166 194 341 476 357 574 12 77 -65 109 -155
65z m98 -54 c0 -45 -40 -133 -119 -259 -72 -114 -210 -300 -217 -293 -8 7 62
172 135 322 54 109 93 175 123 208 50 53 78 61 78 22z m-480 -668 c0 -48 -62
-148 -147 -237 -89 -94 -145 -136 -164 -124 -18 11 -5 86 27 150 41 82 123
167 196 204 73 36 88 37 88 7z"/>
<path d="M9255 4470 c-84 -12 -162 -57 -246 -140 -91 -90 -138 -176 -146 -269
-6 -59 -5 -61 30 -96 63 -63 135 -39 251 86 l73 80 5 -56 c5 -61 24 -90 75
-111 39 -17 84 -18 135 -3 67 18 200 160 174 186 -3 3 -32 -19 -64 -49 -95
-91 -170 -119 -207 -78 -24 26 -14 96 30 215 44 119 44 117 13 132 -46 23 -90
-5 -134 -85 -81 -146 -199 -282 -246 -282 -18 0 -20 5 -16 48 11 117 141 293
256 348 47 23 70 27 135 26 94 0 106 19 25 43 -55 16 -66 17 -143 5z"/>
<path d="M11318 4470 c-59 -11 -159 -65 -220 -120 -62 -55 -140 -172 -157
-235 -39 -145 44 -229 165 -167 22 11 74 56 117 101 l77 81 0 -38 c0 -146 160
-186 324 -82 48 31 49 31 90 15 49 -20 116 -62 116 -74 0 -5 -35 -21 -77 -36
-161 -56 -377 -189 -438 -270 -17 -21 -29 -53 -32 -79 -5 -40 -3 -46 23 -62
21 -15 45 -19 104 -18 82 2 118 10 215 52 169 73 316 227 333 349 l7 47 60 14
c34 8 137 16 238 18 98 2 183 6 188 10 19 11 -11 32 -63 44 -62 15 -203 9
-343 -16 l-100 -17 -46 34 c-25 19 -55 39 -65 45 -17 10 -13 17 51 75 39 34
116 109 173 165 111 110 125 140 77 162 -76 35 -470 -24 -470 -69 0 -17 41
-16 180 7 55 8 116 14 135 12 l35 -3 -120 -123 c-154 -158 -327 -276 -424
-289 -34 -5 -41 -2 -56 20 -14 22 -15 34 -5 89 6 34 27 103 47 152 39 98 36
110 -22 110 -46 0 -70 -24 -136 -135 -78 -133 -190 -249 -240 -249 -21 0 -4
84 34 161 41 86 102 161 171 213 57 42 108 58 193 60 35 0 63 4 63 8 0 32
-116 54 -202 38z m487 -665 c-58 -119 -256 -254 -385 -263 -49 -4 -61 -1 -66
12 -25 65 122 185 354 291 108 49 117 52 120 33 2 -11 -8 -44 -23 -73z"/>
<path d="M7755 4456 c-110 -36 -205 -118 -257 -223 -40 -82 -49 -189 -21 -243
43 -84 182 -104 294 -44 158 85 268 302 216 426 -30 72 -143 113 -232 84z
m161 -87 c46 -91 -40 -269 -178 -370 -50 -35 -111 -40 -128 -10 -24 47 1 175
53 263 14 24 50 67 80 96 52 49 59 52 106 52 46 0 52 -3 67 -31z"/>
</g>
</svg>
